<svg xmlns="http://www.w3.org/2000/svg" xmlns:xlink="http://www.w3.org/1999/xlink" width="20.000003814697266" height="19.02008056640625" viewBox="0 0 20.000003814697266 19.02008056640625" fill="none"><g opacity="1"  transform="translate(0 0)"><path id="多边形 1" fill-rule="evenodd" style="fill:#EEFDFF" opacity="1" d="M10.78 18.0701L19.52 7.34008C19.81 6.99008 19.83 6.49008 19.56 6.12008L15.48 0.420078C15.29 0.160078 14.99 7.82013e-05 14.67 7.82013e-05L5.34 7.82013e-05C5.01 7.82013e-05 4.71 0.150078 4.52 0.420078L0.439999 6.12008C0.169998 6.49008 0.189999 6.99008 0.479998 7.34008L9.23 18.0701C9.63 18.5601 10.38 18.5601 10.78 18.0701Z"></path><path id="路径 1" fill-rule="evenodd" fill="url(#linear_0)" opacity="1" d="M10.0036 6.61643L14.7736 0.906433L5.18359 0.906433L10.0036 6.61643Z"></path><path  id="路径 1" style="fill:#FFFFFF; opacity:0.2;" d="M5.56567 0.583912L10.3857 6.29391L10.0036 6.61643L9.61987 6.29588L14.3899 0.585878L14.7736 0.906433L14.7736 1.40643L5.18359 1.40643L5.18359 0.406433L14.7736 0.406433C15.1978 0.406433 15.4293 0.901435 15.1573 1.22699L10.3873 6.93699C10.1881 7.17545 9.82195 7.17639 9.62152 6.93895L4.80152 1.22895L5.56567 0.583912ZM5.18359 0.406433L5.18359 0.906433L4.80152 1.22895C4.57897 0.792245 4.70633 0.518071 5.18359 0.406433Z"></path><path id="路径 2" fill-rule="evenodd" fill="url(#linear_1)" opacity="1" d="M5.12 0.787109L1.5 6.61711L10 6.61711L5.12 0.787109Z"></path><path  id="路径 2" style="fill:#FFFFFF; opacity:0.2;" d="M10 7.11711L1.5 7.11711C1.10794 7.11711 0.868411 6.68643 1.07522 6.35336L4.69522 0.523355C4.87486 0.234055 5.28483 0.20505 5.50341 0.466177L10.3834 6.29618L9.61659 6.93804L4.73659 1.10804L5.12 0.787109L5.54478 1.05086L1.92478 6.88086L1.5 6.61711L1.5 6.11711L10 6.11711L10 7.11711ZM10 7.11711L10 6.61711L10.3834 6.29618C10.604 6.73255 10.4762 7.0062 10 7.11711Z"></path><path id="路径 2" fill-rule="evenodd" fill="url(#linear_2)" opacity="1" d="M14.88 0.787109L18.5 6.61711L10 6.61711L14.88 0.787109Z"></path><path  id="路径 2" style="fill:#FFFFFF; opacity:0.2;" d="M10 7.11711L18.5 7.11711C18.8921 7.11711 19.1316 6.68643 18.9248 6.35336L15.3048 0.523355C15.1251 0.234055 14.7152 0.20505 14.4966 0.466177L9.61659 6.29618L10.3834 6.93804L15.2634 1.10804L14.88 0.787109L14.4552 1.05086L18.0752 6.88086L18.5 6.61711L18.5 6.11711L10 6.11711L10 7.11711ZM10 7.11711L10 6.61711L9.61659 6.29618C9.39596 6.73255 9.52377 7.0062 10 7.11711Z"></path><path id="路径 3" fill-rule="evenodd" fill="url(#linear_3)" opacity="1" d="M10.0234 17.1612L18.6834 6.63123L13.0234 6.63123L10.0234 17.1612Z"></path><path  id="路径 3" style="fill:#FFFFFF; opacity:0.2;" d="M13.5043 6.76822L10.5043 17.2982L10.0234 17.1612L9.63726 16.8436L18.2973 6.31363L18.6834 6.63123L18.6834 7.13123L13.0234 7.13123L13.0234 6.13123L18.6834 6.13123C19.1058 6.13123 19.3379 6.62258 19.0696 6.94882L10.4096 17.4788C10.0653 17.8975 9.39403 17.5456 9.54257 17.0242L12.5426 6.49423L13.5043 6.76822ZM13.0234 6.13123L13.0234 6.63123L12.5426 6.49423C12.6218 6.26581 12.7821 6.14481 13.0234 6.13123Z"></path><path id="路径 3" fill-rule="evenodd" fill="url(#linear_4)" opacity="1" d="M10 17.1612L1.34 6.63123L7 6.63123L10 17.1612Z"></path><path  id="路径 3" style="fill:#FFFFFF; opacity:0.2;" d="M6.51913 6.76822L9.51913 17.2982L10 17.1612L10.3862 16.8436L1.72618 6.31363L1.34 6.63123L1.34 7.13123L7 7.13123L7 6.13123L1.34 6.13123C0.917597 6.13123 0.685515 6.62258 0.953823 6.94882L9.61382 17.4788C9.95817 17.8975 10.6294 17.5456 10.4809 17.0242L7.48087 6.49423L6.51913 6.76822ZM7 6.13123L7 6.63123L7.48087 6.49423C7.40166 6.26581 7.24138 6.14481 7 6.13123Z"></path><path id="路径 4" fill-rule="evenodd" fill="url(#linear_5)" opacity="1" d="M6.96484 6.63123L10.0548 17.3812L13.0348 6.63123L6.96484 6.63123Z"></path><path  id="路径 4" style="fill:#FFFFFF; opacity:0.2;" d="M13.5167 6.76479L10.5367 17.5148C10.4019 18.001 9.71368 18.0042 9.5743 17.5194L6.4843 6.76935C6.39244 6.44977 6.63232 6.13123 6.96484 6.13123L13.0348 6.13123L13.0348 7.13123L6.96484 7.13123L6.96484 6.63123L7.44539 6.4931L10.5354 17.2431L10.0548 17.3812L9.57301 17.2477L12.553 6.49766L13.5167 6.76479ZM13.5167 6.76479L13.0348 6.63123L13.0348 6.13123C13.4049 6.18315 13.5655 6.39433 13.5167 6.76479Z"></path><path fill-rule="evenodd"  id="多边形 1" style="fill:#00E6FF; opacity:1;" d="M19.52 7.34008L10.78 18.0701C10.38 18.5601 9.63 18.5601 9.23 18.0701L0.479998 7.34008C0.189999 6.99008 0.169998 6.49008 0.439999 6.12008L4.52 0.420078C4.71 0.150078 5.01 7.82013e-05 5.34 7.82013e-05L14.67 7.82013e-05C14.99 7.82013e-05 15.29 0.160078 15.48 0.420078L19.56 6.12008C19.83 6.49008 19.81 6.99008 19.52 7.34008ZM10.0046 15.8552L17.4905 6.66486L14.1514 2.00008L5.84854 2.00008L2.50978 6.6646L10.0046 15.8552ZM2.02997 6.07622C2.0267 6.07214 2.02339 6.06808 2.02004 6.06405L2.02997 6.07622ZM2.07654 7.26988C2.07318 7.27467 2.06977 7.27944 2.06631 7.28417L2.07654 7.26988ZM6.14587 1.58467C6.14915 1.58016 6.1524 1.57563 6.15562 1.57106L6.14587 1.58467ZM17.9335 7.28372C17.9371 7.28885 17.9407 7.29394 17.9444 7.29902L17.9335 7.28372ZM17.9591 6.08948C17.9625 6.08529 17.9659 6.08113 17.9693 6.07699L17.9591 6.08948Z"></path></g><defs><linearGradient id="linear_0" x1="51.036949909332755%" y1="100%" x2="51.0369989186664%" y2="-42.112%" gradientUnits="objectBoundingBox"><stop offset="0" stop-color="#00E6FF" stop-opacity="1" /><stop offset="1" stop-color="#FFFFFF" stop-opacity="0" /></linearGradient><linearGradient id="linear_1" x1="28.260999999999996%" y1="60.38099999999999%" x2="89.389%" y2="100%" gradientUnits="objectBoundingBox"><stop offset="0" stop-color="#00E6FF" stop-opacity="1" /><stop offset="1" stop-color="#FFFFFF" stop-opacity="0" /></linearGradient><linearGradient id="linear_2" x1="14.52183" y1="4.2836514999999995" x2="10.771205" y2="0.7871090000000004" gradientUnits="userSpaceOnUse"><stop offset="0" stop-color="#00E6FF" stop-opacity="1" /><stop offset="1" stop-color="#FFFFFF" stop-opacity="0" /></linearGradient><linearGradient id="linear_3" x1="70.687%" y1="7.792000000000001%" x2="-1.0256101844112302e-14%" y2="100%" gradientUnits="objectBoundingBox"><stop offset="0" stop-color="#00E6FF" stop-opacity="1" /><stop offset="1" stop-color="#FFFFFF" stop-opacity="0" /></linearGradient><linearGradient id="linear_4" x1="4.059326600000001" y1="17.16123" x2="8.7229098" y2="8.5674864" gradientUnits="userSpaceOnUse"><stop offset="0" stop-color="#00E6FF" stop-opacity="1" /><stop offset="1" stop-color="#F4FEFF" stop-opacity="0.04" /></linearGradient><linearGradient id="linear_5" x1="54.39702875441388%" y1="0%" x2="55.39702875441388%" y2="153.352%" gradientUnits="objectBoundingBox"><stop offset="0" stop-color="#00E6FF" stop-opacity="1" /><stop offset="0.1683" stop-color="#2AEAFF" stop-opacity="0.84" /><stop offset="1" stop-color="#FFFFFF" stop-opacity="0" /></linearGradient></defs></svg>