<svg xmlns="http://www.w3.org/2000/svg" xmlns:xlink="http://www.w3.org/1999/xlink" width="48" height="48" viewBox="0 0 48 48" fill="none"><g opacity="1"  transform="translate(0 0)"><path id="矩形 3" fill-rule="evenodd" style="fill:#E6F8FF" opacity="1" d="M8 48L40 48C44.42 48 48 44.42 48 40L48 8C48 3.58 44.42 0 40 0L8 0C3.58 0 0 3.58 0 8L0 40C0 44.42 3.58 48 8 48Z"></path><g opacity="1"  transform="translate(9.60009765625 10.800048828125)"><path id="路径 1" fill-rule="evenodd" style="fill:#70D9FF" opacity="1" d="M22.8 14.58C21.828 19.38 17.364 22.896 14.892 22.98C14.4905 22.0241 14.2225 21.032 14.088 20.004C13.68 18 13.2 15.756 11.82 14.22C11.6727 14.083 11.5127 13.945 11.352 13.824C11.1913 13.703 11.0324 13.5917 10.86 13.488C10.6876 13.3843 10.5142 13.2972 10.332 13.212C10.1498 13.1267 9.95808 13.0499 9.768 12.984C9.57791 12.918 9.3879 12.8618 9.192 12.816C8.99611 12.77 8.7916 12.7332 8.592 12.708C8.3924 12.6826 8.19314 12.66 7.992 12.66C7.79086 12.66 7.59253 12.6676 7.392 12.684C6.696 12.684 5.964 12.684 5.268 12.792C4.572 12.9 3.996 12.876 3.444 12.876C3.09305 12.876 2.74505 12.8567 2.4 12.792L2.4 12.696C2.4 12.544 2.412 12.3918 2.412 12.24C2.412 12.0881 2.42239 11.9354 2.436 11.784C2.4496 11.6326 2.47571 11.4786 2.496 11.328C2.51629 11.1774 2.54106 11.0216 2.568 10.872C2.59494 10.7224 2.61846 10.5762 2.652 10.428C2.68554 10.2798 2.71993 10.1306 2.76 9.984C2.80007 9.83738 2.84548 9.6967 2.892 9.552C2.93852 9.4073 2.99513 9.26251 3.048 9.12C3.10088 8.9775 3.15686 8.84003 3.216 8.7C3.27514 8.55998 3.33073 8.41728 3.396 8.28C3.46127 8.14274 3.52871 8.00626 3.6 7.872C3.67129 7.73777 3.75084 7.60697 3.828 7.476C3.90516 7.34506 3.98512 7.21942 4.068 7.092C4.15088 6.96458 4.23156 6.83162 4.32 6.708C4.40844 6.58439 4.50217 6.46759 4.596 6.348C4.68983 6.22842 4.78498 6.11532 4.884 6C4.98304 5.88469 5.07997 5.76282 5.184 5.652C5.28803 5.54119 5.39917 5.4341 5.508 5.328C5.61684 5.2219 5.73056 5.11718 5.844 5.016C5.95742 4.91482 6.07421 4.82406 6.192 4.728C6.3098 4.63194 6.43007 4.53074 6.552 4.44C6.67393 4.34926 6.79817 4.26127 6.924 4.176C7.04983 4.09074 7.17852 4.01562 7.308 3.936C7.43748 3.85639 7.55912 3.7698 7.692 3.696C7.82488 3.6222 7.96398 3.55985 8.1 3.492C8.23602 3.42415 8.36912 3.36176 8.508 3.3C8.64689 3.23825 8.78652 3.17556 8.928 3.12C9.06948 3.06445 9.2162 3.01324 9.36 2.964C9.50381 2.91478 9.64616 2.86282 9.792 2.82C9.93784 2.77718 10.0884 2.73632 10.236 2.7C10.3836 2.66369 10.5309 2.63376 10.68 2.604C10.8291 2.57425 10.9738 2.55512 11.124 2.532C11.2742 2.50888 11.4289 2.48846 11.58 2.472C11.7311 2.45556 11.8843 2.424 12.036 2.424C12.1877 2.424 12.34 2.412 12.492 2.412C12.644 2.412 12.7961 2.412 12.948 2.412C13.0999 2.412 13.2523 2.436 13.404 2.436C13.5556 2.436 13.7089 2.45486 13.86 2.472C14.0111 2.48914 14.1539 2.5082 14.304 2.532C14.4541 2.55581 14.6111 2.58558 14.76 2.616C14.9089 2.64642 15.0565 2.67502 15.204 2.712C15.3515 2.74898 15.4904 2.78852 15.636 2.832C15.7817 2.87548 15.9364 2.92613 16.08 2.976C16.2235 3.02587 16.3588 3.07582 16.5 3.132C16.6412 3.18818 16.7814 3.24962 16.92 3.312C17.0586 3.37438 17.1923 3.43555 17.328 3.504C17.4637 3.57246 17.6034 3.6456 17.736 3.72C17.8686 3.7944 18.0029 3.87982 18.132 3.96C18.2611 4.0402 18.3786 4.11418 18.504 4.2C18.6294 4.28582 18.7544 4.3847 18.876 4.476C18.9976 4.56731 19.1186 4.65542 19.236 4.752C19.3534 4.84859 19.4711 4.95031 19.584 5.052C19.6969 5.15369 19.8116 5.25742 19.92 5.364C20.0284 5.47058 20.1284 5.57672 20.232 5.688C20.3356 5.79929 20.4335 5.90825 20.532 6.024C20.6305 6.13975 20.7268 6.264 20.82 6.384C20.9134 6.504 21.0082 6.61999 21.096 6.744C21.184 6.86802 21.2658 7.00022 21.348 7.128C21.4303 7.25579 21.5114 7.38071 21.588 7.512C21.6647 7.6433 21.7453 7.78544 21.816 7.92C21.8867 8.05457 21.9553 8.19044 22.02 8.328C22.0847 8.46557 22.1416 8.59572 22.2 8.736C22.2586 8.87629 22.3158 9.02527 22.368 9.168C22.4202 9.31074 22.4662 9.45509 22.512 9.6L24.792 8.844C24.7351 8.66552 24.6768 8.47979 24.612 8.304C24.5473 8.12821 24.4805 7.96075 24.408 7.788C24.3355 7.61526 24.26 7.44138 24.18 7.272C24.1 7.10263 24.0155 6.93367 23.928 6.768C23.8405 6.60234 23.7467 6.43764 23.652 6.276C23.5573 6.11437 23.4538 5.9533 23.352 5.796C23.2502 5.63872 23.1486 5.49264 23.04 5.34C22.9314 5.18736 22.8193 5.03167 22.704 4.884C22.5887 4.73633 22.4657 4.59444 22.344 4.452C22.2223 4.30957 22.0998 4.16892 21.972 4.032C21.8441 3.89509 21.7218 3.75512 21.588 3.624C21.4542 3.49289 21.3074 3.36506 21.168 3.24C21.0286 3.11494 20.8928 2.99878 20.748 2.88C20.6032 2.76122 20.454 2.64425 20.304 2.532C20.1541 2.41975 20.0028 2.3135 19.848 2.208C19.6932 2.1025 19.5394 1.99456 19.38 1.896C19.2208 1.79744 19.0516 1.71142 18.888 1.62C18.7244 1.5286 18.5634 1.4401 18.396 1.356C18.2286 1.27193 18.063 1.1806 17.892 1.104C17.721 1.0274 17.5381 0.956957 17.364 0.888C17.1899 0.819043 17.0251 0.757183 16.848 0.696C16.671 0.634817 16.4876 0.58129 16.308 0.528C16.1284 0.474712 15.9498 0.417292 15.768 0.372C15.5862 0.32671 15.3996 0.289205 15.216 0.252C15.0324 0.214795 14.8492 0.185045 14.664 0.156C14.479 0.126955 14.2981 0.104828 14.112 0.084C13.9259 0.0631721 13.735 0.0365705 13.548 0.024C13.3612 0.0114295 13.1713 0 12.984 0C12.7967 0 12.6073 0 12.42 0C12.2327 0 12.055 0.0117155 11.868 0.024C11.6811 0.0362845 11.4902 0.0514568 11.304 0.072C11.1178 0.092543 10.9371 0.127238 10.752 0.156C10.5669 0.184762 10.3717 0.215076 10.188 0.252C10.0043 0.288924 9.82985 0.326988 9.648 0.372C9.46616 0.417013 9.28768 0.462986 9.108 0.516C8.92832 0.569015 8.74516 0.623087 8.568 0.684C8.39084 0.744912 8.21429 0.81931 8.04 0.888C7.86571 0.95669 7.69507 1.02767 7.524 1.104C7.35293 1.18033 7.18753 1.26017 7.02 1.344C6.85247 1.42783 6.67966 1.51685 6.516 1.608C6.35234 1.69916 6.19547 1.7857 6.036 1.884C5.87653 1.98232 5.71096 2.09074 5.556 2.196C5.40104 2.30126 5.25016 2.40798 5.1 2.52C4.94986 2.63203 4.80104 2.74945 4.656 2.868C4.51096 2.98656 4.37567 3.10315 4.236 3.228C4.09634 3.35286 3.962 3.48109 3.828 3.612C3.69401 3.74292 3.56008 3.8833 3.432 4.02C3.30392 4.15672 3.1819 4.29775 3.06 4.44C2.9381 4.58225 2.81549 4.7245 2.7 4.872C2.58451 5.0195 2.47285 5.16353 2.364 5.316C2.25515 5.46847 2.15399 5.62687 2.052 5.784C1.95 5.94114 1.84693 6.10252 1.752 6.264C1.65706 6.4255 1.56371 6.59047 1.476 6.756C1.38829 6.92153 1.30429 7.09075 1.224 7.26C1.1437 7.42925 1.06873 7.59137 0.996 7.764C0.923273 7.93664 0.857018 8.11632 0.792 8.292C0.726982 8.46769 0.657181 8.64161 0.6 8.82C0.542819 8.99839 0.493232 9.17926 0.444 9.36C0.394768 9.54074 0.353188 9.71725 0.312 9.9C0.270812 10.0828 0.237061 10.2676 0.204 10.452C0.170939 10.6364 0.132871 10.8303 0.108 11.016C0.083129 11.2017 0.0646315 11.3814 0.048 11.568C0.0313685 11.7546 0.012 11.9448 0.012 12.132C0.012 12.3191 0 12.5086 0 12.696C0 14.844 1.536 15.276 3.444 15.276C4.716 15.276 6.156 15.084 7.392 15.084C7.62798 15.0559 7.86311 15.0412 8.1 15.06C8.3369 15.0787 8.56739 15.1271 8.796 15.192C9.02461 15.2568 9.24455 15.3475 9.456 15.456C9.66745 15.5644 9.86992 15.6922 10.056 15.84C12.372 18.348 11.124 25.44 14.856 25.44C18.876 25.44 24.78 20.316 25.368 13.8L22.8 14.58Z"></path><path id="路径 2" fill-rule="evenodd" style="fill:#5CFFE1" opacity="1" d="M28.5479 11.4071L17.2559 15.1391C17.1439 15.1757 17.0319 15.1757 16.9199 15.1391L15.9479 14.7791C15.908 14.7644 15.8702 14.7454 15.8346 14.7222C15.799 14.699 15.7664 14.6721 15.7369 14.6416C15.7073 14.6109 15.6816 14.5774 15.6596 14.541C15.6376 14.5046 15.62 14.4662 15.6068 14.4258C15.5936 14.3854 15.585 14.3441 15.581 14.3017C15.5771 14.2594 15.578 14.2172 15.5836 14.175C15.5892 14.1329 15.5995 14.0918 15.6144 14.052C15.6293 14.0123 15.6484 13.9746 15.6719 13.9391L16.2359 13.0751C16.2633 13.0238 16.3 12.9804 16.346 12.9449C16.392 12.9093 16.4433 12.8847 16.4999 12.8711L27.7919 9.12709C27.8163 9.11956 27.8413 9.11443 27.8666 9.11172C27.8921 9.10902 27.9176 9.10878 27.9431 9.111C27.9685 9.11323 27.9936 9.11788 28.0181 9.12495C28.0428 9.13202 28.0664 9.14139 28.0891 9.15305C28.1119 9.16471 28.1334 9.17844 28.1534 9.19425C28.1736 9.21005 28.1919 9.22765 28.2086 9.24702C28.2253 9.2664 28.2399 9.28719 28.2527 9.30941C28.2654 9.33163 28.2757 9.35486 28.2839 9.3791L28.7999 10.9031C28.8075 10.9279 28.8128 10.9533 28.8156 10.9791C28.8185 11.005 28.8187 11.0309 28.8165 11.0567C28.8144 11.0827 28.8098 11.1081 28.8027 11.1332C28.7958 11.1582 28.7865 11.1823 28.7749 11.2056C28.7633 11.2288 28.7495 11.2508 28.7336 11.2714C28.7179 11.292 28.7003 11.311 28.6808 11.3282C28.6614 11.3455 28.6405 11.3607 28.6181 11.374C28.5957 11.3873 28.5723 11.3983 28.5479 11.4071Z"></path><path id="减去顶层" fill-rule="evenodd" style="fill:#70D9FF" opacity="1" d="M17.6279 16.2791C17.4566 16.3375 17.2806 16.3655 17.0999 16.3631C16.8949 16.3614 16.695 16.3294 16.4999 16.2671L15.5278 15.9071C15.4038 15.8609 15.2866 15.8015 15.1761 15.7288C15.0655 15.656 14.9645 15.5719 14.8731 15.4763C14.7817 15.3807 14.7021 15.276 14.6343 15.1624C14.5666 15.0488 14.5125 14.929 14.4718 14.8031C14.4275 14.6773 14.3983 14.5482 14.3841 14.4156C14.3699 14.283 14.3711 14.1506 14.3878 14.0184C14.4045 13.8862 14.4361 13.7576 14.4827 13.6326Q14.5527 13.4453 14.6638 13.2791L15.2278 12.4151C15.3337 12.2549 15.4627 12.1163 15.6148 11.999C15.7669 11.8819 15.934 11.7926 16.1159 11.7311L21.3719 9.99109C21.3005 9.76146 21.2201 9.53501 21.1308 9.31175Q20.9967 8.97686 20.8367 8.65363C20.7299 8.43815 20.6148 8.22722 20.4913 8.02087C20.3678 7.81452 20.2364 7.61337 20.097 7.41744C19.9576 7.22151 19.8107 7.03141 19.6561 6.84713C19.5016 6.66286 19.34 6.48499 19.1716 6.31352C19.0028 6.14206 18.8278 5.97755 18.6461 5.81998C18.4644 5.6624 18.2768 5.51226 18.0833 5.36957C17.8897 5.22688 17.6909 5.09208 17.4866 4.96516C17.2823 4.83823 17.0734 4.7196 16.8598 4.60926C16.646 4.49892 16.4284 4.3972 16.2066 4.30412C15.9848 4.21104 15.7598 4.12689 15.5314 4.05166C15.303 3.97642 15.072 3.91036 14.8383 3.85345C14.6047 3.79655 14.3692 3.74898 14.1317 3.71075C13.8943 3.67252 13.6557 3.64376 13.4161 3.62446C13.1764 3.60514 12.9363 3.59536 12.6958 3.59509C8.02782 3.59509 3.37182 8.62309 3.97182 11.2391C4.08086 11.6753 4.56644 11.6358 5.03238 11.598C5.07919 11.5942 5.12581 11.5904 5.17183 11.5871C5.92782 11.5271 6.68383 11.4791 7.37983 11.4791C7.62148 11.4616 7.8634 11.4568 8.10557 11.4647C8.34773 11.4726 8.58883 11.4932 8.82882 11.5264C9.06882 11.5597 9.30644 11.6054 9.54165 11.6635C9.77686 11.7217 10.0084 11.792 10.2362 11.8745C10.464 11.957 10.6869 12.0511 10.9049 12.157C11.1228 12.2629 11.3346 12.3799 11.5403 12.508C11.7459 12.636 11.9443 12.7746 12.1354 12.9235C12.3265 13.0724 12.5093 13.2309 12.6838 13.3991C14.3398 15.1871 14.8078 17.6231 15.2278 19.7831C15.3358 20.3351 15.5638 20.6231 16.2959 20.8991C17.0279 21.1751 20.2079 18.4991 21.3719 15.0431L17.6279 16.2791ZM10.7998 6.59519C10.7998 5.60519 11.6098 4.79519 12.5998 4.79519C13.5898 4.79519 14.3998 5.60519 14.3998 6.59519C14.3998 7.58519 13.5898 8.39519 12.5998 8.39519C11.6098 8.39519 10.7998 7.58519 10.7998 6.59519ZM6.00003 8.99509C6.00003 8.00509 6.81003 7.19509 7.80003 7.19509C8.79003 7.19509 9.60003 8.00509 9.60003 8.99509C9.60003 9.98509 8.79003 10.7951 7.80003 10.7951C6.81003 10.7951 6.00003 9.98509 6.00003 8.99509ZM18.2039 7.19509C17.5439 7.19509 17.0039 7.73509 17.0039 8.39509C17.0039 9.05509 17.5439 9.59509 18.2039 9.59509C18.8639 9.59509 19.4039 9.05509 19.4039 8.39509C19.4039 7.73509 18.8639 7.19509 18.2039 7.19509Z"></path></g></g></svg>