<?xml version="1.0" standalone="no"?><!DOCTYPE svg PUBLIC "-//W3C//DTD SVG 1.1//EN" "http://www.w3.org/Graphics/SVG/1.1/DTD/svg11.dtd"><svg t="1687092889272" class="icon" viewBox="0 0 1821 1024" version="1.1" xmlns="http://www.w3.org/2000/svg" p-id="7087" xmlns:xlink="http://www.w3.org/1999/xlink" width="355.6640625" height="200"><path d="M1353.2 188.933333c-28.8 1.466667-55.2 19.866667-66.933333 46.266667-12.933333 29.6-6.666667 59.733333 10.666666 81.333333l-8.266666 34.4c-16.8 70.4-79.6 120-152 120-81.466667 0-149.2-62.666667-155.733334-143.733333l-7.733333-97.466667c37.6-24.933333 59.733333-71.2 48.933333-121.6-9.333333-43.2-44.266667-78.133333-87.6-87.2C860.266667 5.333333 794.666667 61.866667 794.666667 133.6c0 40.133333 20.533333 75.466667 51.733333 96.133333l-7.733333 97.466667c-6.533333 81.2-74.266667 143.733333-155.733334 143.733333-72.266667 0-135.2-49.733333-152-120l-8.266666-34.4c17.333333-21.6 23.6-51.866667 10.666666-81.333333-11.466667-26.4-38-44.933333-66.933333-46.266667-52.666667-2.666667-90.933333 43.466667-82.533333 92 4.666667 26.933333 22.533333 48.266667 45.6 58.4l70 494.4h820.266666v-0.266666l70-494.133334c23.2-10.266667 41.066667-31.6 45.6-58.4 8.933333-48.666667-29.466667-94.666667-82.133333-92z m0 0" fill="#D4FCFF" p-id="7088"></path><path d="M1196.133333 992.4H619.066667c-67.2 0-121.6-54.4-121.6-121.6h820.266666c0 67.2-54.533333 121.6-121.6 121.6z m0 0" fill="#83C6EF" p-id="7089"></path><path d="M383.066667 267.2c0 43.6 35.333333 78.8 78.8 78.8s78.8-35.333333 78.8-78.8-35.333333-78.8-78.8-78.8-78.8 35.2-78.8 78.8z m0 0" fill="#D4FCFF" p-id="7090"></path><path d="M1353.2 188.933333c-28.8 1.466667-55.2 19.866667-66.933333 46.266667-12.933333 29.6-6.666667 59.733333 10.666666 81.333333l-8.266666 34.4c-16.8 70.4-79.6 120-152 120-81.466667 0-149.2-62.666667-155.733334-143.733333l-7.733333-97.466667c37.6-24.933333 59.733333-71.2 48.933333-121.6-9.333333-43.2-44.266667-78.133333-87.6-87.2-8.4-1.866667-16.8-2.4-24.933333-2.4v815.333334h410.133333v-0.266667l70-494.133333c23.2-10.266667 41.066667-31.6 45.6-58.4 8.933333-48.8-29.466667-94.8-82.133333-92.133334z m0 0" fill="#AEFBFF" p-id="7091"></path><path d="M1279.466667 267.2c0 43.466667 35.2 78.666667 78.666666 78.666667s78.666667-35.2 78.666667-78.666667-35.2-78.666667-78.666667-78.666667c-43.333333 0-78.666667 35.2-78.666666 78.666667z m0 0M793.466667 131.6c0 64.4 52.133333 116.533333 116.533333 116.533333 64.266667 0 116.533333-52.133333 116.533333-116.533333 0-41.6-22.266667-80-58.266666-100.933333-36-20.8-80.4-20.8-116.533334 0-36.133333 20.933333-58.266667 59.333333-58.266666 100.933333z m0 0" fill="#D4FCFF" p-id="7092"></path><path d="M907.6 870.8v121.6h291.466667c65.6 0 118.666667-53.066667 118.666666-118.666667v-2.933333H907.6z m0 0" fill="#429BCF" p-id="7093"></path><path d="M518.933333 212.933333c-9.333333 48.133333-48.933333 89.866667-105.866666 115.733334 13.466667 10.8 30.266667 17.333333 48.8 17.333333 43.466667 0 78.8-35.333333 78.8-78.8 0.133333-21.066667-8.4-40.133333-21.733334-54.266667z m896.533334 0.666667c-10.8 47.466667-51.066667 88.266667-108 113.333333 13.733333 11.733333 31.333333 19.066667 50.933333 19.066667 43.466667 0 78.666667-35.2 78.666667-78.666667-0.266667-20.933333-8.4-39.733333-21.6-53.733333zM991.066667 48.133333c2.4 7.066667 3.866667 14.4 3.866666 21.866667 0 54.8-68.4 99.333333-152.666666 99.333333-15.2 0-30-1.466667-43.866667-4.266666 14.4 48 58.933333 82.933333 111.6 82.933333 64.266667 0 116.533333-52.133333 116.533333-116.533333-0.133333-32.666667-13.733333-62.266667-35.466666-83.333334z m0 0" fill="#AEFBFF" p-id="7094"></path><path d="M422.266667 232.933333c1.6 2.8 6.533333 3.333333 13.066666 1.466667s13.466667-6 18.4-10.666667c4.933333-4.666667 6.933333-9.2 5.333334-12-1.6-2.8-6.533333-3.333333-13.066667-1.466666s-13.466667 6-18.4 10.666666c-4.933333 4.666667-6.933333 9.333333-5.333333 12z m0 0M1370.933333 230.133333c6.533333 3.733333 13.466667 5.866667 18.133334 5.333334 4.666667-0.533333 6.4-3.466667 4.533333-7.733334-1.866667-4.266667-7.066667-9.333333-13.733333-13.066666-6.533333-3.733333-13.466667-5.866667-18.133334-5.333334-4.666667 0.533333-6.4 3.466667-4.533333 7.733334 1.866667 4.4 7.066667 9.333333 13.733333 13.066666z m0 0M863.733333 49.866667c0 6.266667 19.733333 11.333333 44.133334 11.333333s44.133333-5.066667 44.133333-11.333333-19.733333-11.333333-44.133333-11.333334c-24.4 0.133333-44.133333 5.2-44.133334 11.333334z m0 0" fill="#FFFFFF" p-id="7095"></path><path d="M945.066667 639.866667h-65.466667c-14.8 0-26.933333-12.133333-26.933333-26.933334s12.133333-26.933333 26.933333-26.933333h65.466667c14.8 0 26.933333 12.133333 26.933333 26.933333 0.133333 14.8-12 26.933333-26.933333 26.933334z m0 0" fill="#C2AAE8" p-id="7096"></path><path d="M945.066667 585.866667h-35.2V640h35.2c14.8 0 26.933333-12.133333 26.933333-26.933333 0.133333-15.066667-12-27.2-26.933333-27.2z m0 0" fill="#A06EE0" p-id="7097"></path></svg>