<?xml version="1.0" standalone="no"?><!DOCTYPE svg PUBLIC "-//W3C//DTD SVG 1.1//EN" "http://www.w3.org/Graphics/SVG/1.1/DTD/svg11.dtd"><svg t="1685799485497" class="icon" viewBox="0 0 1024 1024" version="1.1" xmlns="http://www.w3.org/2000/svg" p-id="4726" xmlns:xlink="http://www.w3.org/1999/xlink" width="48" height="48"><path d="M512 517.12m-460.8 0a460.8 460.8 0 1 0 921.6 0 460.8 460.8 0 1 0-921.6 0Z" fill="#F9D67A" p-id="4727"></path><path d="M399.6672 650.0352v109.568c0.0512 35.84-29.0304 64.9216-64.9728 64.9216-35.84 0-64.9216-29.0304-64.9216-64.9216v-110.0288" fill="#F48433" p-id="4728"></path><path d="M334.6944 829.6448c-38.6048 0-70.0416-31.4368-70.0416-70.0416v-110.0288h10.24v110.0288c0 32.9728 26.8288 59.8016 59.8016 59.8016 16.0256 0 31.0784-6.2464 42.3936-17.5616 11.264-11.264 17.4592-26.2656 17.4592-42.24v-109.568h10.24v109.568c0 18.688-7.2192 36.2496-20.4288 49.4592a69.74464 69.74464 0 0 1-49.664 20.5824z" fill="#413D2C" p-id="4729"></path><path d="M715.4688 361.5744c61.3888 7.5264 108.9024 59.8528 108.8512 123.2896v0.1024c-0.0512 63.3856-47.5648 115.6608-108.8512 123.1872" fill="#F48433" p-id="4730"></path><path d="M716.0832 613.2224l-1.2288-10.1376c59.4432-7.2704 104.3456-58.0608 104.3456-118.1184 0.0512-60.16-44.8512-110.9504-104.3456-118.272l1.2288-10.1376c64.6656 7.936 113.408 63.1296 113.3568 128.3584-0.0512 65.2288-48.7936 120.3712-113.3568 128.3072z" fill="#413D2C" p-id="4731"></path><path d="M642.5088 212.2752L399.104 319.6416H278.3232C234.9056 319.6416 199.68 354.816 199.68 398.2848v173.1072c0 43.4176 35.1744 78.6432 78.6432 78.6432h138.6496l225.1264 101.5808c34.4064 15.5136 73.3184-9.6256 73.3184-47.36v-444.416c0.0512-37.5808-38.5536-62.72-72.9088-47.5648z" fill="#6295CC" p-id="4732"></path><path d="M663.552 761.344c-7.9872 0-15.9744-1.6896-23.5008-5.0688l-224.1024-101.12H278.3232c-46.1824 0-83.7632-37.5808-83.7632-83.7632V398.2848c0-46.1824 37.5808-83.7632 83.7632-83.7632h119.6544l242.3808-106.9056c17.7152-7.8336 37.9904-6.1952 54.2208 4.4032s25.9072 28.4672 25.9072 47.8208v444.416c0 19.456-9.7792 37.376-26.112 47.9744a56.69888 56.69888 0 0 1-30.8224 9.1136zM278.3232 324.7616C237.7728 324.7616 204.8 357.7344 204.8 398.2848v173.1072c0 40.5504 32.9728 73.5232 73.5232 73.5232h139.776l1.024 0.4608 225.1264 101.5808a46.63808 46.63808 0 0 0 44.6976-3.3792 46.71488 46.71488 0 0 0 21.4528-39.3728v-444.416c0-15.872-7.936-30.5664-21.248-39.2704a46.76608 46.76608 0 0 0-44.544-3.6352L400.1792 324.7616h-121.856z" fill="#413D2C" p-id="4733"></path><path d="M558.4896 351.1808L425.6768 403.3024H359.7824c-23.7056 0-42.9056 17.0496-42.9056 38.144v83.968c0 21.0432 19.2 38.144 42.9056 38.144h75.6736l122.8288 49.2544c18.7904 7.5264 40.0384-4.6592 40.0384-22.9888V374.272c-0.0512-18.2272-21.0944-30.4128-39.8336-23.0912z" fill="#FFFFFF" p-id="4734"></path><path d="M570.0096 620.1856c-4.608 0-9.216-0.8704-13.6704-2.6624l-121.9072-48.896H359.7824c-26.4704 0-48.0256-19.4048-48.0256-43.264v-83.968c0-23.8592 21.5552-43.264 48.0256-43.264h64.9216l131.9424-51.7632c11.2128-4.4032 23.7568-3.0208 33.536 3.6352 8.448 5.7856 13.2608 14.592 13.2608 24.2176v215.5008c0 9.6768-4.9152 18.5344-13.4144 24.32-6.0416 4.096-13.0048 6.144-20.0192 6.144zM359.7824 408.4224c-20.8384 0-37.7856 14.7968-37.7856 33.024v83.968c0 18.2272 16.9472 33.024 37.7856 33.024h76.6464l0.9216 0.3584 122.8288 49.2544c7.936 3.1744 17.152 2.2528 24.064-2.4064 5.6832-3.84 8.9088-9.5744 8.9088-15.8208V374.272c0-6.1952-3.1744-11.9296-8.7552-15.7696-6.8608-4.7104-16.0768-5.6832-24.0128-2.56L426.6496 408.4224H359.7824z" fill="#413D2C" p-id="4735"></path></svg>