<svg xmlns="http://www.w3.org/2000/svg" xmlns:xlink="http://www.w3.org/1999/xlink" width="48" height="48" viewBox="0 0 48 48" fill="none"><g opacity="1"  transform="translate(0 0)"><path id="矩形 3" fill-rule="evenodd" style="fill:#E6F8FF" opacity="1" d="M8 48L40 48C44.42 48 48 44.42 48 40L48 8C48 3.58 44.42 0 40 0L8 0C3.58 0 0 3.58 0 8L0 40C0 44.42 3.58 48 8 48Z"></path><g opacity="1"  transform="translate(9.60009765625 12.177734375)"><path id="减去顶层" fill-rule="evenodd" style="fill:#70D9FF" opacity="1" d="M6.2001 24.5306L1.0001 24.5306C0.4501 24.5306 0.0001 24.0806 0.0001 23.5306L0.0001 1.53064C0.0001 0.98064 0.4501 0.53064 1.0001 0.53064L6.2001 0.53064C6.7501 0.53064 7.2001 0.98064 7.2001 1.53064L7.2001 23.5306C7.2001 24.0806 6.7501 24.5306 6.2001 24.5306ZM4.3 5.35464L2.9 5.35464C2.62 5.35464 2.4 5.13464 2.4 4.85464L2.4 3.45464C2.4 3.17464 2.62 2.95464 2.9 2.95464L4.3 2.95464C4.58 2.95464 4.8 3.17464 4.8 3.45464L4.8 4.85464C4.8 5.13464 4.58 5.35464 4.3 5.35464ZM4.3 10.1307L2.9 10.1307C2.62 10.1307 2.4 9.91074 2.4 9.63074L2.4 8.23074C2.4 7.95074 2.62 7.73074 2.9 7.73074L4.3 7.73074C4.58 7.73074 4.8 7.95074 4.8 8.23074L4.8 9.63074C4.8 9.91074 4.58 10.1307 4.3 10.1307ZM2.9 19.7186L4.3 19.7186C4.58 19.7186 4.8 19.4986 4.8 19.2186L4.8 13.0186C4.8 12.7386 4.58 12.5186 4.3 12.5186L2.9 12.5186C2.62 12.5186 2.4 12.7386 2.4 13.0186L2.4 19.2186C2.4 19.4986 2.62 19.7186 2.9 19.7186Z"></path><path id="减去顶层" fill-rule="evenodd" style="fill:#70D9FF" opacity="1" d="M14.8041 24.5306L9.6041 24.5306C9.0541 24.5306 8.6041 24.0806 8.6041 23.5306L8.6041 1.53064C8.6041 0.98064 9.0541 0.53064 9.6041 0.53064L14.8041 0.53064C15.3541 0.53064 15.8041 0.98064 15.8041 1.53064L15.8041 23.5306C15.8041 24.0806 15.3541 24.5306 14.8041 24.5306ZM11.504 10.1307L12.904 10.1307C13.184 10.1307 13.404 9.91074 13.404 9.63074L13.404 8.23074C13.404 7.95074 13.184 7.73074 12.904 7.73074L11.504 7.73074C11.224 7.73074 11.004 7.95074 11.004 8.23074L11.004 9.63074C11.004 9.91074 11.224 10.1307 11.504 10.1307ZM11.504 19.7186L12.904 19.7186C13.184 19.7186 13.404 19.4986 13.404 19.2186L13.404 13.0186C13.404 12.7386 13.184 12.5186 12.904 12.5186L11.504 12.5186C11.224 12.5186 11.004 12.7386 11.004 13.0186L11.004 19.2186C11.004 19.4986 11.224 19.7186 11.504 19.7186Z"></path><path id="减去顶层" fill-rule="evenodd" style="fill:#5CFFE1" opacity="1" d="M27.7167 23.5468L22.6191 24.5738C22.08 24.6824 21.5499 24.3302 21.4413 23.791L17.0963 2.2244C16.9877 1.68523 17.34 1.15522 17.8791 1.0466L22.9767 0.0196C23.5158 -0.089025 24.0458 0.263235 24.1545 0.8024L28.4995 22.369C28.6081 22.9082 28.2558 23.4382 27.7167 23.5468ZM22.6607 5.01707L20.112 5.53057C19.8375 5.58587 19.5784 5.41365 19.5231 5.13917L19.2466 3.76675C19.1913 3.49226 19.3635 3.23315 19.638 3.17785L22.1867 2.66435C22.4612 2.60905 22.7203 2.78126 22.7756 3.05575L23.0521 4.42817C23.1074 4.70265 22.9352 4.96177 22.6607 5.01707ZM23.3721 8.56097L20.8234 9.07447C20.5489 9.12977 20.2898 8.95755 20.2345 8.68307L19.958 7.31065C19.9027 7.03616 20.0749 6.77705 20.3494 6.72175L22.8981 6.20825C23.1726 6.15295 23.4317 6.32516 23.487 6.59965L23.7635 7.97207C23.8188 8.24655 23.6466 8.50567 23.3721 8.56097ZM22.9394 19.5745L25.4881 19.061C25.7626 19.0057 25.9348 18.7465 25.8795 18.4721L25.603 17.0996C25.5477 16.8252 25.2886 16.6529 25.0141 16.7082L22.4654 17.2217C22.1909 17.277 22.0187 17.5362 22.074 17.8106L22.3505 19.1831C22.4058 19.4575 22.6649 19.6298 22.9394 19.5745Z"></path></g></g></svg>