<svg xmlns="http://www.w3.org/2000/svg" xmlns:xlink="http://www.w3.org/1999/xlink" width="48" height="48" viewBox="0 0 48 48" fill="none"><g opacity="1"  transform="translate(0 0)"><path id="矩形 3" fill-rule="evenodd" style="fill:#E6F8FF" opacity="1" d="M8 48L40 48C44.42 48 48 44.42 48 40L48 8C48 3.58 44.42 0 40 0L8 0C3.58 0 0 3.58 0 8L0 40C0 44.42 3.58 48 8 48Z"></path><g opacity="1"  transform="translate(13.7431640625 10.3760986328125)"><path id="圆形 1" fill-rule="evenodd" style="fill:#5CFFE1" opacity="1" d="M10.199 21.9537C5.22897 21.9537 1.19897 23.1437 1.19897 24.6037C1.19897 26.0638 5.22897 27.2438 10.199 27.2438C15.169 27.2438 19.199 26.0638 19.199 24.6037C19.199 23.1437 15.169 21.9537 10.199 21.9537Z"></path><g opacity="1"  transform="translate(0 0)"><path id="减去顶层" fill-rule="evenodd" style="fill:#70D9FF" opacity="1" d="M18.4919 16.296C18.6614 16.0721 18.7856 15.9572 18.9359 15.72C19.0862 15.4828 19.2258 15.2369 19.3559 14.988C19.486 14.7391 19.607 14.4788 19.7159 14.22C19.8248 13.9612 19.9287 13.7069 20.0159 13.44C20.103 13.1731 20.1793 12.8973 20.2439 12.624C20.3086 12.3507 20.3582 12.0737 20.3999 11.796C20.4417 11.5183 20.4774 11.2482 20.4959 10.968C20.5106 10.7455 20.5095 10.5163 20.5084 10.2908C20.5082 10.2322 20.5079 10.1739 20.5079 10.116C20.5079 9.95315 20.4839 9.79849 20.4839 9.636C20.4839 9.47351 20.4672 9.30577 20.4479 9.144C20.4288 8.98223 20.4027 8.82469 20.3759 8.664C20.3491 8.50332 20.3142 8.34325 20.2799 8.184C20.2456 8.02476 20.2137 7.86146 20.1719 7.704C20.1301 7.54655 20.077 7.39131 20.0279 7.236C19.9788 7.08069 19.9283 6.93283 19.8719 6.78C19.8155 6.62717 19.7555 6.474 19.6919 6.324C19.6284 6.174 19.5584 6.02685 19.4879 5.88C19.4173 5.73316 19.3492 5.57938 19.2719 5.436C19.1946 5.29264 19.1159 5.15557 19.0319 5.016C18.9479 4.87644 18.8584 4.74346 18.7679 4.608C18.6774 4.47254 18.5767 4.33105 18.4799 4.2C18.3832 4.06895 18.2947 3.94236 18.1919 3.816C18.0891 3.68965 17.9766 3.56538 17.8679 3.444C17.7593 3.32263 17.6462 3.21212 17.5319 3.096C17.4176 2.97988 17.3034 2.85863 17.1839 2.748C17.0643 2.63738 16.9366 2.52886 16.8119 2.424C16.6872 2.31914 16.5693 2.22289 16.4399 2.124C16.3105 2.02512 16.1779 1.92868 16.0439 1.836C15.91 1.74332 15.7741 1.65828 15.6359 1.572C15.4976 1.48573 15.358 1.39968 15.2159 1.32C15.0738 1.24032 14.9296 1.16491 14.7839 1.092C14.6383 1.0191 14.4889 0.941963 14.3399 0.876C14.191 0.810037 14.0357 0.754879 13.8839 0.696C13.732 0.63712 13.5824 0.579665 13.4279 0.528C13.2734 0.476334 13.1167 0.428336 12.9599 0.384C12.8032 0.339661 12.6506 0.30091 12.4919 0.264C12.3333 0.227089 12.1722 0.197402 12.0119 0.168C11.8517 0.138597 11.6933 0.105829 11.5319 0.084C11.3705 0.0621713 11.2021 0.0502067 11.0399 0.036C10.8776 0.0217933 10.7227 0 10.5599 0L9.83987 0C9.60025 0 9.35825 0.033451 9.11987 0.06C8.88156 0.0865489 8.64779 0.124815 8.41187 0.168C8.17599 0.211185 7.93616 0.252391 7.70387 0.312C7.47159 0.371609 7.24741 0.440261 7.01987 0.516C6.79232 0.591739 6.55754 0.676503 6.33587 0.768C6.11419 0.859497 5.90258 0.961194 5.68787 1.068C5.47315 1.17481 5.25858 1.29441 5.05187 1.416C4.84516 1.53759 4.64955 1.66423 4.45187 1.8C4.25418 1.93578 4.05155 2.07071 3.86387 2.22C3.67619 2.3693 3.50063 2.52593 3.32387 2.688C3.14711 2.85008 2.97282 3.01794 2.80787 3.192C2.6429 3.36607 2.49223 3.5468 2.33987 3.732C2.18751 3.9172 2.03488 4.11259 1.89587 4.308C1.75686 4.50342 1.62484 4.70332 1.49987 4.908C1.37489 5.11268 1.26219 5.31908 1.15187 5.532C1.04154 5.74494 0.935005 5.95987 0.839869 6.18C0.744735 6.40014 0.655341 6.62574 0.575869 6.852C0.496396 7.07827 0.42329 7.30473 0.359869 7.536C0.296442 7.76728 0.25093 7.99685 0.203869 8.232C0.156807 8.46716 0.114332 8.71413 0.0838692 8.952C0.0533995 9.18987 0.0255966 9.42058 0.0118692 9.66C-0.000476224 9.87543 -0.000320601 10.0919 -0.000165398 10.3079L-0.000130828 10.38C-0.000130828 10.6198 0.0159824 10.861 0.0358692 11.1C0.0557494 11.339 0.0832873 11.583 0.119869 11.82C0.156443 12.057 0.198771 12.2821 0.251869 12.516C0.304967 12.7499 0.362515 12.9824 0.431869 13.212C0.501225 13.4416 0.5866 13.6719 0.671869 13.896C0.75714 14.1202 0.847102 14.3384 0.947869 14.556C1.04863 14.7737 1.1561 14.994 1.27187 15.204C1.38763 15.414 1.51367 15.6146 1.64387 15.816C1.77406 16.0174 1.90788 16.2122 2.05187 16.404C2.48256 16.968 7.05369 21.4778 9.15587 23.58C9.19005 23.6125 9.22675 23.6469 9.26387 23.676C9.30092 23.7052 9.34415 23.7345 9.38387 23.76C9.42359 23.7855 9.46196 23.8104 9.50387 23.832C9.54584 23.8536 9.59204 23.8745 9.63587 23.892C9.67969 23.9095 9.72261 23.9267 9.76787 23.94C9.81313 23.9532 9.85352 23.964 9.89987 23.964C9.94622 23.964 9.99691 23.988 10.0439 23.988C10.0908 23.988 10.1407 24 10.1879 24C10.235 24 10.2849 23.988 10.3319 23.988C10.3788 23.988 10.4175 23.964 10.4639 23.964C10.5102 23.964 10.5626 23.9532 10.6079 23.94C10.6532 23.9267 10.6961 23.9095 10.7399 23.892C10.7838 23.8745 10.8299 23.8536 10.8719 23.832C10.9138 23.8104 10.9522 23.7855 10.9919 23.76C11.0317 23.7345 11.0629 23.7052 11.0999 23.676C11.137 23.6469 11.1737 23.6125 11.2079 23.58C13.3101 21.5291 17.4474 17.544 17.8679 16.98L18.4919 16.296ZM5.4561 9.9272C5.4561 7.2772 7.6061 5.1272 10.2561 5.1272C12.9061 5.1272 15.0561 7.2772 15.0561 9.9272C15.0561 12.5772 12.9061 14.7272 10.2561 14.7272C7.6061 14.7272 5.4561 12.5772 5.4561 9.9272Z"></path></g></g></g></svg>