<?xml version="1.0" standalone="no"?><!DOCTYPE svg PUBLIC "-//W3C//DTD SVG 1.1//EN" "http://www.w3.org/Graphics/SVG/1.1/DTD/svg11.dtd"><svg t="1688445072197" class="icon" viewBox="0 0 1024 1024" version="1.1" xmlns="http://www.w3.org/2000/svg" p-id="2757" xmlns:xlink="http://www.w3.org/1999/xlink" width="100" height="100"><path d="M960 1024H240V0h720a64.08 64.08 0 0 1 64 64v896a64 64 0 0 1-64 64zM454.496 753.04a46.912 46.912 0 0 0-46.848 46.848 46.912 46.912 0 0 0 46.848 46.864h371.04a46.912 46.912 0 0 0 46.848-46.864 46.912 46.912 0 0 0-46.848-46.848z m0-207.888a46.912 46.912 0 0 0-46.848 46.864 46.912 46.912 0 0 0 46.848 46.848h371.04a46.912 46.912 0 0 0 46.848-46.848 46.912 46.912 0 0 0-46.848-46.864zM712 385.376a16 16 0 0 1 7.36 1.792l56.88 29.44a15.904 15.904 0 0 0 7.376 1.84 16.256 16.256 0 0 0 12.432-5.968 15.664 15.664 0 0 0 3.2-13.248l-11.648-57.264a16 16 0 0 1 5.088-15.184l44.432-39.216a15.792 15.792 0 0 0 4.688-16.752 15.808 15.808 0 0 0-13.408-11.2l-62.256-7.36a16 16 0 0 1-12.448-8.736l-27.424-54.928a15.904 15.904 0 0 0-14.304-8.864 15.904 15.904 0 0 0-14.304 8.864L670.24 243.52a16 16 0 0 1-12.448 8.736l-62.256 7.36a15.808 15.808 0 0 0-13.408 11.2 15.792 15.792 0 0 0 4.688 16.752l44.448 39.216a16 16 0 0 1 5.072 15.184l-11.648 57.264a15.648 15.648 0 0 0 3.2 13.248 16.272 16.272 0 0 0 12.432 5.968 15.872 15.872 0 0 0 7.376-1.84l56.88-29.44a16 16 0 0 1 7.424-1.808zM64 1024a64 64 0 0 1-64-64V64a64 64 0 0 1 64-64h112v1024H64z" fill="#347ED5" p-id="2758"></path></svg>