<svg xmlns="http://www.w3.org/2000/svg" xmlns:xlink="http://www.w3.org/1999/xlink" width="16" height="16" viewBox="0 0 16 16" fill="none">
<path d="M3.42999 1.14L3.42999 2L14 2L14 12.57L14.86 12.57C15.49 12.57 16 12.06 16 11.43L16 1.14C16 0.51 15.49 0 14.86 0L4.56999 0C3.93999 0 3.42999 0.51 3.42999 1.14Z"   fill="#70D9FF" >
</path>
<path fill-rule="evenodd"  fill="rgba(112, 217, 255, 1)"  d="M1 13.73L1 4.27C1 3.57 1.57 3 2.27 3L11.73 3C12.43 3 13 3.57 13 4.27L13 13.73C13 14.43 12.43 15 11.73 15L2.27 15C1.57 15 1 14.43 1 13.73ZM3 5L3 13L11 13L11 5L3 5Z">
</path>
</svg>
