<svg xmlns="http://www.w3.org/2000/svg" xmlns:xlink="http://www.w3.org/1999/xlink" width="16" height="16" viewBox="0 0 16 16" fill="none">
<path d="M2.86 13C2.38 13 2 13.45 2 14C2 14.55 2.38 15 2.86 15L13.14 15C13.62 15 14 14.55 14 14C14 13.45 13.62 13 13.14 13L2.86 13Z"   fill="#70D9FF" >
</path>
<path d="M7 2L7 11C7 11.55 7.45 12 8 12C8.55 12 9 11.55 9 11L9 2C9 1.45 8.55 1 8 1C7.45 1 7 1.45 7 2Z"   fill="#70D9FF" >
</path>
<path d="M3.75928 5.75977C3.48928 5.75977 3.23928 5.85977 3.04928 6.04977C2.65928 6.43977 2.65928 7.06977 3.04928 7.45977L7.28928 11.7098C7.47928 11.8998 7.72928 12.0098 7.99928 12.0098C8.26928 12.0098 8.51928 11.8998 8.70928 11.7098C8.89928 11.5198 9.00928 11.2698 9.00928 10.9998C9.00928 10.7298 8.89928 10.4798 8.70928 10.2898L4.45928 6.04977C4.26928 5.86977 4.01928 5.75977 3.75928 5.75977Z"   fill="#70D9FF" >
</path>
<path d="M7.29414 11.7098C7.47414 11.8998 7.73414 12.0098 8.00414 12.0098C8.26414 12.0098 8.52414 11.8998 8.71414 11.7098L13.0041 7.45977C13.3841 7.06977 13.3841 6.43977 13.0041 6.04977C12.8141 5.85977 12.5541 5.75977 12.2941 5.75977L12.2441 5.75977C11.9741 5.75977 11.7241 5.86977 11.5441 6.04977L7.29414 10.2898C7.10414 10.4798 6.99414 10.7298 6.99414 10.9998C6.99414 11.2698 7.10414 11.5198 7.29414 11.7098Z"   fill="#70D9FF" >
</path>
</svg>
