<svg xmlns="http://www.w3.org/2000/svg" xmlns:xlink="http://www.w3.org/1999/xlink" width="24" height="20" viewBox="0 0 24 20" fill="none">
<path     fill="#E6F8FF"  d="M-1.83697e-15 18C-2.03988e-15 19.1046 0.895431 20 2 20L22 20C23.1046 20 24 19.1046 24 18L24 6.99998C24 5.89541 23.1046 4.99998 22 4.99998L13.2317 4.99998C12.4764 4.99998 11.7856 4.57455 11.4457 3.90012L10.0343 1.09986C9.69443 0.42543 9.00359 0 8.24834 0L2 -9.16036e-16C0.895431 -1.05131e-15 1.16982e-15 0.895431 1.10218e-15 2L-1.83697e-15 18Z">
</path>
<path fill-rule="evenodd"  fill="rgba(112, 217, 255, 1)"  d="M2 20C0.895431 20 0 19.1046 0 18L0 2C0 0.895431 0.895431 0 2 0L8.24834 0C9.00359 0 9.69443 0.42543 10.0343 1.09986L11.4457 3.90012C11.7856 4.57455 12.4764 4.99998 13.2317 4.99998L22 4.99998C23.1046 4.99998 24 5.89541 24 6.99998L24 18C24 19.1046 23.1046 20 22 20L2 20ZM22 18L2 18L2 2L8.24834 2L8.24835 1.99999L9.65967 4.80026C10.3395 6.14911 11.7212 6.99998 13.2317 6.99998L22 6.99998L22 18Z">
</path>
<rect  x="9" y="11" width="11" height="3" rx="2"    fill="#70D9FF" >
</rect>
<circle cx="5.5" cy="12.5" r="1.5"   fill="#70D9FF" >
</circle>
</svg>
