<svg xmlns="http://www.w3.org/2000/svg" xmlns:xlink="http://www.w3.org/1999/xlink" width="48" height="48" viewBox="0 0 48 48" fill="none"><g opacity="1"  transform="translate(0 0)"><path id="矩形 3" fill-rule="evenodd" style="fill:#E6F8FF" opacity="1" d="M8 48L40 48C44.42 48 48 44.42 48 40L48 8C48 3.58 44.42 0 40 0L8 0C3.58 0 0 3.58 0 8L0 40C0 44.42 3.58 48 8 48Z"></path><g opacity="1"  transform="translate(9.60009765625 10.800048828125)"><path id="减去顶层" fill-rule="evenodd" style="fill:#70D9FF" opacity="1" d="M28.8001 19.2C28.8001 19.2786 28.7963 19.3571 28.7886 19.4352C28.7808 19.5134 28.7693 19.5911 28.754 19.6682C28.7387 19.7453 28.7196 19.8215 28.6968 19.8967C28.674 19.972 28.6476 20.0459 28.6175 20.1185C28.5873 20.1911 28.5537 20.262 28.5167 20.3314C28.4796 20.4006 28.4393 20.4679 28.3956 20.5333C28.352 20.5987 28.3052 20.6617 28.2553 20.7226C28.2055 20.7833 28.1527 20.8415 28.0971 20.897C28.0416 20.9526 27.9834 21.0054 27.9227 21.0552C27.8618 21.105 27.7988 21.1518 27.7334 21.1955C27.668 21.2392 27.6007 21.2795 27.5315 21.3166C27.4621 21.3536 27.3912 21.3872 27.3186 21.4174C27.246 21.4475 27.1721 21.4739 27.0968 21.4967C27.0216 21.5195 26.9454 21.5386 26.8683 21.5539C26.7912 21.5692 26.7135 21.5807 26.6353 21.5885C26.5572 21.5962 26.4787 21.6 26.4001 21.6L2.4001 21.6C2.3215 21.6 2.24309 21.5962 2.16486 21.5885C2.08664 21.5807 2.00898 21.5692 1.93188 21.5539C1.85478 21.5386 1.77863 21.5195 1.70342 21.4967C1.6282 21.4739 1.55428 21.4475 1.48166 21.4174Q1.37274 21.3722 1.26875 21.3166C1.19943 21.2795 1.13209 21.2392 1.06673 21.1955C1.00138 21.1518 0.938318 21.105 0.877556 21.0552C0.816795 21.0054 0.758624 20.9526 0.703043 20.897C0.647463 20.8415 0.594741 20.7833 0.544875 20.7226C0.49501 20.6617 0.448242 20.5987 0.404573 20.5333C0.360904 20.4679 0.320542 20.4006 0.283488 20.3314C0.246436 20.262 0.21287 20.1911 0.182789 20.1185C0.152709 20.0459 0.126261 19.972 0.103443 19.8967C0.080626 19.8215 0.06155 19.7453 0.0462153 19.6682C0.0308806 19.5911 0.0193611 19.5134 0.0116567 19.4352C0.00395222 19.3571 0.0001 19.2786 0.0001 19.2L0.0001 2.4C0.0001 2.32136 0.0039522 2.24296 0.0116566 2.1648C0.0193611 2.08656 0.0308806 2.00888 0.0462153 1.93176C0.06155 1.85472 0.0806259 1.77856 0.103443 1.70328C0.126261 1.62808 0.152709 1.55416 0.182789 1.48152C0.21287 1.40896 0.246436 1.338 0.283488 1.26864C0.320542 1.19936 0.360904 1.13204 0.404573 1.06668C0.448242 1.00132 0.49501 0.938239 0.544875 0.877439C0.594741 0.816719 0.647463 0.758558 0.703043 0.702958C0.758624 0.647358 0.816795 0.59464 0.877556 0.544799C0.938318 0.494879 1.00138 0.448118 1.06673 0.404519C1.13209 0.360839 1.19943 0.320478 1.26875 0.283438C1.33808 0.246318 1.40904 0.212718 1.48166 0.182639C1.55428 0.152558 1.6282 0.126119 1.70342 0.10332C1.77863 0.0805183 1.85478 0.0614388 1.93188 0.0460784C2.00898 0.0307984 2.08664 0.0192787 2.16486 0.0115196C2.24309 0.00383834 2.3215 0 2.4001 0L26.4001 0C26.4787 0 26.5572 0.00383834 26.6353 0.0115196C26.7135 0.0192787 26.7912 0.0307984 26.8683 0.0460784C26.9454 0.0614388 27.0216 0.0805183 27.0968 0.10332C27.1721 0.126119 27.246 0.152558 27.3186 0.182639C27.3912 0.212718 27.4621 0.246318 27.5315 0.283438C27.6007 0.320478 27.668 0.360839 27.7334 0.404519C27.7988 0.448118 27.8618 0.494879 27.9227 0.544799C27.9834 0.59464 28.0416 0.647358 28.0971 0.702958C28.1527 0.758558 28.2055 0.816719 28.2553 0.877439C28.3052 0.938239 28.352 1.00132 28.3956 1.06668C28.4393 1.13204 28.4796 1.19936 28.5167 1.26864C28.5537 1.338 28.5873 1.40896 28.6175 1.48152C28.6476 1.55416 28.674 1.62808 28.6968 1.70328C28.7196 1.77856 28.7387 1.85472 28.754 1.93176C28.7693 2.00888 28.7808 2.08656 28.7886 2.1648C28.7963 2.24296 28.8001 2.32136 28.8001 2.4L28.8001 19.2ZM2.8199 10.512C2.8199 9.022 4.0299 7.812 5.5199 7.812C7.0099 7.812 8.2199 9.022 8.2199 10.512C8.2199 12.002 7.0099 13.212 5.5199 13.212C4.0299 13.212 2.8199 12.002 2.8199 10.512ZM11.4601 10.512C11.4601 9.022 12.6701 7.812 14.1601 7.812C15.6501 7.812 16.8601 9.022 16.8601 10.512C16.8601 12.002 15.6501 13.212 14.1601 13.212C12.6701 13.212 11.4601 12.002 11.4601 10.512ZM22.8 7.812C21.31 7.812 20.1 9.022 20.1 10.512C20.1 12.002 21.31 13.212 22.8 13.212C24.29 13.212 25.5 12.002 25.5 10.512C25.5 9.022 24.29 7.812 22.8 7.812Z"></path><path id="路径 5" fill-rule="evenodd" style="fill:#5CFFE1" opacity="1" d="M4.7998 21.9958L14.3998 21.9958L11.2918 25.1038C11.2362 25.1595 11.178 25.2123 11.1173 25.2622C11.0565 25.3122 10.9934 25.359 10.928 25.4026C10.8626 25.4464 10.7952 25.4868 10.7259 25.524C10.6565 25.5611 10.5855 25.5947 10.5129 25.6248C10.4402 25.6549 10.3662 25.6814 10.291 25.7042C10.2157 25.7271 10.1395 25.7462 10.0623 25.7616C9.9852 25.7769 9.90749 25.7885 9.82921 25.7961C9.75093 25.8039 9.67246 25.8078 9.59381 25.8078C9.51514 25.8078 9.43668 25.8039 9.3584 25.7961C9.28012 25.7885 9.20241 25.7769 9.12527 25.7616C9.04812 25.7462 8.9719 25.7271 8.89664 25.7042C8.82138 25.6814 8.74741 25.6549 8.67475 25.6248C8.60209 25.5947 8.53107 25.5611 8.46171 25.524C8.39236 25.4868 8.325 25.4464 8.25961 25.4026C8.19422 25.359 8.13114 25.3122 8.07036 25.2622C8.00958 25.2123 7.9514 25.1595 7.8958 25.1038L4.7998 21.9958Z"></path></g></g></svg>