<svg xmlns="http://www.w3.org/2000/svg" fill="none"><g clip-path="url(#a)"><path fill="#fff" d="M16.114 1.78a.27.27 0 0 0 0 .44l.43.306c.166.119.311.264.43.43l.306.43a.27.27 0 0 0 .44 0l.306-.43c.119-.166.264-.311.43-.43l.43-.306a.27.27 0 0 0 0-.44l-.43-.306a1.825 1.825 0 0 1-.43-.43l-.306-.43a.27.27 0 0 0-.44 0l-.306.43a1.825 1.825 0 0 1-.43.43l-.43.306Zm.828 8.25c0-1.031-.209-2.014-.587-2.908.047-.04.096-.078.146-.114l.683-.485a8.47 8.47 0 0 1-11.94 10.85 2.878 2.878 0 0 1-.715.349l-2.322.759a.355.355 0 0 1-.457-.246l-.647-2.355c-.396-1.44.384-2.98 1.755-3.53l5.735-9.94a1.588 1.588 0 0 1 2.814 1.475l-3.57 7.572c.671.492 1.41.748 2.162.748 1.213 0 2.395-.668 3.311-1.917.3-.409.565-.873.786-1.383a1.47 1.47 0 0 0 1.253-.501c-.892 2.824-2.952 4.8-5.35 4.8-.458 0-.903-.071-1.33-.207.985.84 2.187 1.323 3.447 1.323 1.841 0 3.559-1.034 4.657-2.7.11-.512.17-1.044.17-1.59ZM4.124 12.158a2.64 2.64 0 0 1 1.823.965l4.564-9.683.01-.018a.588.588 0 0 0-1.042-.546l-.01.018-5.345 9.264Zm1.87 4.487a7.439 7.439 0 0 0 3.478.857 7.464 7.464 0 0 0 6.225-3.339c-1.043.735-2.27 1.158-3.581 1.158-1.946 0-3.703-.931-4.955-2.43l-.66 1.4a2.978 2.978 0 0 1-.508 2.354Zm-1.776.127c.973-.318 1.55-1.392 1.279-2.379a1.66 1.66 0 0 0-2.15-1.156c-.973.318-1.551 1.392-1.28 2.379l.469 1.706 1.682-.55Zm7.483-11.198a.477.477 0 0 1 .088-.697l.759-.54a3.22 3.22 0 0 0 .758-.758l.54-.76a.477.477 0 0 1 .777 0l.54.76c.209.293.465.55.758.758l.76.54a.477.477 0 0 1 0 .777l-.76.54a3.22 3.22 0 0 0-.758.758l-.54.76a.477.477 0 0 1-.777 0l-.54-.76a3.22 3.22 0 0 0-.758-.758l-.76-.54a.48.48 0 0 1-.087-.08Z"/></g><defs><clipPath id="a"><path fill="#fff" d="M0 .5h20v20H0z"/></clipPath></defs></svg>