<svg xml:space="preserve" style="enable-background:new 0 0 1280 1024;" viewBox="0 0 1280 1024" y="0px" x="0px" xmlns:xlink="http://www.w3.org/1999/xlink" xmlns="http://www.w3.org/2000/svg" id="图层_1" version="1.1">
<style type="text/css">
	.st0{opacity:0.62;}
	.st1{opacity:0.23;fill:#7F68BC;enable-background:new    ;}
	.st2{fill:#FBB03B;}
	.st3{fill:#FFFFFF;}
	.st4{fill:#F7931E;}
	.st5{fill:#DFE1F3;}
	.st6{fill:#AFB4E1;}
	.st7{fill:#3C6ABA;}
	.st8{fill:#D3D1FC;}
	.st9{opacity:0.44;fill:#FFFFFF;enable-background:new    ;}
	.st10{fill:#662D91;}
	.st11{fill:#E85842;}
	.st12{fill:#B8B2FF;}
	.st13{fill:#BACCFF;}
	.st14{fill:#CCCCFF;}
	.st15{fill:#8682D1;}
	.st16{fill:#A9DDF3;}
	.st17{fill:#C2E0B6;}
	.st18{opacity:0.29;fill:#0A532E;enable-background:new    ;}
	.st19{fill:#6CBC64;}
	.st20{opacity:0.4;fill:#FFFFFF;enable-background:new    ;}
	.st21{fill:#44B46E;}
	.st22{fill:#D3E279;}
	.st23{fill:#9AC83B;}
	.st24{fill:#A7D398;}
</style>
<g class="st0" id="背影">
	<path d="M232.1,895.9c0,0,42.4-74.9,86.8-73.9c44.4,1,56.5,9.2,84.1,30.6c5.4,4.2,22.8-2.3,40.6-12.3
		c29.1-16.3,45.7-13.3,54.1-4.1c18.4,20.1,27.5,33.9,38.1,31.3c33.2-8.2,54.8-4.6,81.7,2.4c51,13.3,43.8,24.2,51.5,25.9
		C676.7,897.6,232.1,895.9,232.1,895.9z" class="st1"></path>
	<path d="M734.7,894.8c0,0,4.3-52.2,30.8-65.4c26.5-13.3,37.6,0,40.7,10.2s4.3,28.6,27.2,24.5
		c22.9-4.1,17.5-13.7,41.3-13.7c20.3,0,29.1,6.8,41.3,11.5c32.7,12.7,64.6,27,66.4,31.1c2.7,6.1-66.4,7.1-66.4,7.1L734.7,894.8z" class="st1"></path>
	<g>
		<path d="M251.4,235.8l58.8,3.1c1.2,0.1,2.4,0.9,2.6,1.8L467,771.5c0.3,0.9-0.7,1.8-1.9,1.8
			c-22.2-0.2-42.5-11.8-47.6-29c0,0,0-0.1,0-0.1L204.9,278c0-0.1-0.1-0.1-0.1-0.2C197.2,253,218.5,234.1,251.4,235.8z" class="st2"></path>
		<path d="M328.9,239.8l123.2,6.4c1.1,0.1,2.1,0.8,2.3,1.7l134.4,502.7c0.2,0.7-0.4,1.5-1.3,1.6l-105.8,19.3
			c-1,0.2-2-0.3-2.2-1l-152.3-529C327,240.4,327.7,239.8,328.9,239.8z" class="st2"></path>
		<path d="M462.9,247.4l109.7,5.7c1,0.1,1.9,0.8,2.1,1.6l118,476.7c0.2,0.7-0.4,1.4-1.2,1.5l-95.1,17.3
			c-0.9,0.2-1.8-0.3-2-1l-133-500.3C461.2,248,461.9,247.3,462.9,247.4z" class="st2"></path>
		<path d="M587.4,253.9l98.2,5.1c0.8,0,1.7,0.7,1.9,1.5l103.9,453c0.2,0.7-0.3,1.3-1.1,1.5l-85.8,15.6
			c-0.8,0.2-1.6-0.3-1.8-1L586,255.2C585.8,254.4,586.4,253.8,587.4,253.9z" class="st2"></path>
		<path d="M698.8,259.7l88.3,4.6c0.8,0,1.5,0.7,1.7,1.4l91.9,431.6c0.1,0.6-0.3,1.3-1,1.4l-77.9,14.2
			c-0.7,0.1-1.5-0.3-1.6-1L697.6,261C697.4,260.2,697.9,259.6,698.8,259.7z" class="st2"></path>
		<path d="M799.1,264.9l80,4.2c0.7,0,1.4,0.6,1.5,1.3l81.5,411.8c0.1,0.5-0.2,1.1-0.7,1.3c-1.3,0.4-2.7,0.8-4.1,1
			l-67,12.2c-0.7,0.1-1.3-0.3-1.5-0.9L798,266.1C797.8,265.4,798.3,264.8,799.1,264.9z" class="st2"></path>
		<path d="M947.5,304l33.1,346.9c0,0,0,0.1,0,0.1c2,10.6-2.1,20.9-9.9,27.3c-0.7,0.5-1.7,0.2-1.8-0.7l-80-406.9
			c-0.1-0.7,0.3-1.2,1-1.2l20.6,1.1c17.2,0.9,33.7,15.8,37,33.1C947.5,303.9,947.5,303.9,947.5,304z" class="st2"></path>
	</g>
	<g>
		<path d="M531.3,729.2l-9.7,0.7l-0.2-0.8C524.7,729.4,528,729.4,531.3,729.2z" class="st3"></path>
	</g>
	<g>
		<path d="M1074.9,686.5L1074.9,686.5c0.2,0.7-0.3,1.3-1,1.4l-7.3,0.6l-0.1-0.5c2.3-0.6,4.4-1.4,6.4-2.5
			C1073.6,685.1,1074.7,685.6,1074.9,686.5z" class="st3"></path>
	</g>
</g>
<g id="桌子">
	<path d="M369.6,897.4h-2.8c-1.6,0-2.8-1.3-2.8-2.8l-2.8-338.8c0-1.6,4.1-2.8,5.7-2.8h2.8c1.6,0,4.4,1.3,4.4,2.8
		l-1.5,338.8C372.4,896.2,371.1,897.4,369.6,897.4z" class="st4"></path>
	<path d="M825.3,897.4h-2.8c-1.6,0-2.8-1.3-2.8-2.8l-2.8-338.8c0-1.6,4.1-2.8,5.7-2.8h2.8c1.6,0,4.3,1.3,4.3,2.8
		l-1.5,338.8C828.1,896.2,826.9,897.4,825.3,897.4z" class="st4"></path>
	<path d="M900.7,897.4h-2.8c-1.6,0-2.8-1.3-2.8-2.8l-2.8-338.8c0-1.6,4.1-2.8,5.7-2.8h2.8c1.6,0,4.3,1.3,4.3,2.8
		l-1.5,338.8C903.5,896.2,902.3,897.4,900.7,897.4z" class="st4"></path>
	<path d="M295.6,897.4h-2.8c-1.6,0-2.8-1.3-2.8-2.8l-2.8-338.8c0-1.6,4.1-2.8,5.7-2.8h2.8c1.6,0,4.4,1.3,4.4,2.8
		l-1.5,338.8C298.5,896.2,297.2,897.4,295.6,897.4z" class="st4"></path>
	<path d="M364.5,813.2h-64.1c-2.8,0-5.1-2.3-5.1-5.1l0,0c0-2.8,2.3-5.1,5.1-5.1h64.1c2.8,0,5.1,2.3,5.1,5.1l0,0
		C369.6,810.8,367.3,813.2,364.5,813.2z" class="st4"></path>
	<path d="M893.2,813.2h-64.1c-2.8,0-5.1-2.3-5.1-5.1l0,0c0-2.8,2.3-5.1,5.1-5.1h64.1c2.8,0,5.1,2.3,5.1,5.1l0,0
		C898.3,810.8,896,813.2,893.2,813.2z" class="st4"></path>
	<rect height="36.8" width="771.2" class="st5" y="537.5" x="227.7"></rect>
	<rect height="36.8" width="199.9" class="st6" y="537.5" x="227.7"></rect>
</g>
<path d="M1147.4,899.2H132.6c-1.6,0-2.8-1.3-2.8-2.8l0,0c0-1.6,1.3-2.8,2.8-2.8h1014.8
	c1.6,0,2.8,1.3,2.8,2.8l0,0C1150.3,897.9,1149,899.2,1147.4,899.2z" class="st7" id="地平线"></path>
<g id="浮窗">
	<g>
		<path d="M738.5,341.2h-298c-6.6,0-12-5.4-12-12V115.8c0-6.6,5.4-12,12-12h298c6.6,0,12,5.4,12,12v213.4
			C750.5,335.8,745.1,341.2,738.5,341.2z" class="st8"></path>
		<path d="M617,180.4l-40.1-23.2c-3.3-1.9-7.4,0.5-7.4,4.3v46.3c0,3.8,4.1,6.2,7.4,4.3l40.1-23.2
			C620.3,187,620.3,182.3,617,180.4z" class="st3"></path>
		<path d="M529.7,124.7h-74.3c-0.8,0-1.4-0.6-1.4-1.4v-0.5c0-0.8,0.6-1.4,1.4-1.4h74.3c0.8,0,1.4,0.6,1.4,1.4v0.5
			C531.2,124.1,530.5,124.7,529.7,124.7z" class="st9"></path>
		<path d="M526.4,275.5h-74.3c-0.8,0-1.4-0.6-1.4-1.4v-0.5c0-0.8,0.6-1.4,1.4-1.4h74.3c0.8,0,1.4,0.6,1.4,1.4v0.5
			C527.8,274.8,527.2,275.5,526.4,275.5z" class="st9"></path>
		<path d="M513,299.9h-60.9c-0.8,0-1.4-0.6-1.4-1.4V298c0-0.8,0.6-1.4,1.4-1.4H513c0.8,0,1.4,0.6,1.4,1.4v0.5
			C514.4,299.3,513.8,299.9,513,299.9z" class="st9"></path>
		<path d="M496.2,321.7h-44.1c-0.8,0-1.4-0.6-1.4-1.4v-0.5c0-0.8,0.6-1.4,1.4-1.4h44.1c0.8,0,1.4,0.6,1.4,1.4v0.5
			C497.6,321,497,321.7,496.2,321.7z" class="st9"></path>
		<path d="M687.4,251.6H452.1c-0.8,0-1.4-0.6-1.4-1.4v-0.5c0-0.8,0.6-1.4,1.4-1.4h235.3c0.8,0,1.4,0.6,1.4,1.4v0.5
			C688.8,250.9,688.2,251.6,687.4,251.6z" class="st9"></path>
		<path d="M728.7,124.7h-37.4c-0.8,0-1.4-0.6-1.4-1.4v-0.5c0-0.8,0.6-1.4,1.4-1.4h37.4c0.8,0,1.4,0.6,1.4,1.4v0.5
			C730.1,124.1,729.5,124.7,728.7,124.7z" class="st9"></path>
		<path d="M630.8,314.9h-14.5c-4.7,0-8.5-3.8-8.5-8.5V302c0-4.7,3.8-8.5,8.5-8.5h14.5c4.7,0,8.5,3.8,8.5,8.5v4.4
			C639.3,311,635.5,314.9,630.8,314.9z" class="st9"></path>
		<path d="M679.7,314.3h-14.5c-4.7,0-8.5-3.8-8.5-8.5v-4.4c0-4.7,3.8-8.5,8.5-8.5h14.5c4.7,0,8.5,3.8,8.5,8.5v4.4
			C688.2,310.5,684.4,314.3,679.7,314.3z" class="st9"></path>
	</g>
	<g>
		<path d="M978.4,340.5H813.8c-6.6,0-12-5.4-12-12V213.5c0-6.6,5.4-12,12-12h164.6c6.6,0,12,5.4,12,12v115.1
			C990.4,335.1,985,340.5,978.4,340.5z" class="st8"></path>
		<path d="M909.2,244.6l-17.4-10c-3.3-1.9-7.4,0.5-7.4,4.3v20.1c0,3.8,4.1,6.2,7.4,4.3l17.4-10
			C912.5,251.2,912.5,246.5,909.2,244.6z" class="st3"></path>
		<path d="M861.1,213.7h-43.5c-0.5,0-0.8-0.4-0.8-0.8v-0.3c0-0.5,0.4-0.8,0.8-0.8h43.5c0.5,0,0.8,0.4,0.8,0.8v0.3
			C862,213.4,861.6,213.7,861.1,213.7z" class="st9"></path>
		<path d="M859.2,302h-43.5c-0.5,0-0.8-0.4-0.8-0.8v-0.3c0-0.5,0.4-0.8,0.8-0.8h43.5c0.5,0,0.8,0.4,0.8,0.8v0.3
			C860,301.7,859.6,302,859.2,302z" class="st9"></path>
		<path d="M851.3,316.4h-35.7c-0.5,0-0.8-0.4-0.8-0.8v-0.3c0-0.5,0.4-0.8,0.8-0.8h35.7c0.5,0,0.8,0.4,0.8,0.8v0.3
			C852.1,316,851.8,316.4,851.3,316.4z" class="st9"></path>
		<path d="M841.5,329.1h-25.8c-0.5,0-0.8-0.4-0.8-0.8V328c0-0.5,0.4-0.8,0.8-0.8h25.8c0.5,0,0.8,0.4,0.8,0.8v0.3
			C842.3,328.7,841.9,329.1,841.5,329.1z" class="st9"></path>
		<path d="M953.5,288H815.7c-0.5,0-0.8-0.4-0.8-0.8v-0.3c0-0.5,0.4-0.8,0.8-0.8h137.8c0.5,0,0.8,0.4,0.8,0.8v0.3
			C954.3,287.7,953.9,288,953.5,288z" class="st9"></path>
		<path d="M977.6,213.7h-21.9c-0.5,0-0.8-0.4-0.8-0.8v-0.3c0-0.5,0.4-0.8,0.8-0.8h21.9c0.5,0,0.8,0.4,0.8,0.8v0.3
			C978.5,213.4,978.1,213.7,977.6,213.7z" class="st9"></path>
		<path d="M920,325.1h-7.8c-2.9,0-5.3-2.4-5.3-5.3v-1.9c0-2.9,2.4-5.3,5.3-5.3h7.8c2.9,0,5.3,2.4,5.3,5.3v1.9
			C925.3,322.7,922.9,325.1,920,325.1z" class="st9"></path>
		<path d="M948.6,324.8h-7.8c-2.9,0-5.3-2.4-5.3-5.3v-1.9c0-2.9,2.4-5.3,5.3-5.3h7.8c2.9,0,5.3,2.4,5.3,5.3v1.9
			C953.9,322.4,951.6,324.8,948.6,324.8z" class="st9"></path>
	</g>
	<g>
		<path d="M1111.6,519.7H994.5c-6.6,0-12-5.4-12-12v-80c0-6.6,5.4-12,12-12h117.1c6.6,0,12,5.4,12,12v80
			C1123.6,514.3,1118.2,519.7,1111.6,519.7z" class="st10"></path>
		<path d="M1060.9,446.9l-9.3-5.4c-3.3-1.9-7.4,0.5-7.4,4.3v10.7c0,3.8,4.1,6.2,7.4,4.3l9.3-5.4
			C1064.2,453.5,1064.2,448.8,1060.9,446.9z" class="st3"></path>
		<path d="M1026.7,424.9h-32.3c-0.4,0-0.7-0.3-0.7-0.7l0,0c0-0.4,0.3-0.7,0.7-0.7h32.3c0.4,0,0.7,0.3,0.7,0.7l0,0
			C1027.4,424.5,1027.1,424.9,1026.7,424.9z" class="st9"></path>
		<path d="M1025.2,490.9h-32.3c-0.4,0-0.7-0.3-0.7-0.7l0,0c0-0.4,0.3-0.7,0.7-0.7h32.3c0.4,0,0.7,0.3,0.7,0.7l0,0
			C1026,490.6,1025.6,490.9,1025.2,490.9z" class="st9"></path>
		<path d="M1019.3,501.6h-26.4c-0.4,0-0.7-0.3-0.7-0.7l0,0c0-0.4,0.3-0.7,0.7-0.7h26.5c0.4,0,0.7,0.3,0.7,0.7l0,0
			C1020.1,501.3,1019.8,501.6,1019.3,501.6z" class="st9"></path>
		<path d="M1012,511.2h-19.1c-0.4,0-0.7-0.3-0.7-0.7l0,0c0-0.4,0.3-0.7,0.7-0.7h19.1c0.4,0,0.7,0.3,0.7,0.7l0,0
			C1012.7,510.8,1012.4,511.2,1012,511.2z" class="st9"></path>
		<path d="M1095.8,480.5H992.9c-0.4,0-0.7-0.3-0.7-0.7l0,0c0-0.4,0.3-0.7,0.7-0.7h102.9c0.4,0,0.7,0.3,0.7,0.7l0,0
			C1096.5,480.1,1096.2,480.5,1095.8,480.5z" class="st9"></path>
		<path d="M1113.9,424.9h-16.2c-0.4,0-0.7-0.3-0.7-0.7l0,0c0-0.4,0.3-0.7,0.7-0.7h16.2c0.4,0,0.7,0.3,0.7,0.7l0,0
			C1114.6,424.5,1114.3,424.9,1113.9,424.9z" class="st9"></path>
		<path d="M1070.1,508.2h-4.4c-2.6,0-4.7-2.1-4.7-4.7l0,0c0-2.6,2.1-4.7,4.7-4.7h4.4c2.6,0,4.7,2.1,4.7,4.7l0,0
			C1074.8,506.1,1072.7,508.2,1070.1,508.2z" class="st9"></path>
		<path d="M1091.6,508h-4.4c-2.6,0-4.7-2.1-4.7-4.7l0,0c0-2.6,2.1-4.7,4.7-4.7h4.4c2.6,0,4.7,2.1,4.7,4.7l0,0
			C1096.3,505.8,1094.1,508,1091.6,508z" class="st9"></path>
	</g>
	<g>
		<g>
			<path d="M268.9,498H151.8c-6.6,0-12-5.4-12-12v-80c0-6.6,5.4-12,12-12h117.1c6.6,0,12,5.4,12,12v80
				C280.9,492.6,275.5,498,268.9,498z" class="st11"></path>
		</g>
		<path d="M218.2,425.1l-9.3-5.4c-3.3-1.9-7.4,0.5-7.4,4.3v10.7c0,3.8,4.1,6.2,7.4,4.3l9.3-5.4
			C221.5,431.8,221.5,427,218.2,425.1z" class="st3"></path>
		<path d="M184,403.1h-32.3c-0.4,0-0.7-0.3-0.7-0.7l0,0c0-0.4,0.3-0.7,0.7-0.7H184c0.4,0,0.7,0.3,0.7,0.7l0,0
			C184.8,402.8,184.4,403.1,184,403.1z" class="st9"></path>
		<path d="M182.6,469.2h-32.3c-0.4,0-0.7-0.3-0.7-0.7l0,0c0-0.4,0.3-0.7,0.7-0.7h32.3c0.4,0,0.7,0.3,0.7,0.7l0,0
			C183.3,468.9,183,469.2,182.6,469.2z" class="st9"></path>
		<path d="M176.7,479.9h-26.4c-0.4,0-0.7-0.3-0.7-0.7l0,0c0-0.4,0.3-0.7,0.7-0.7h26.4c0.4,0,0.7,0.3,0.7,0.7l0,0
			C177.4,479.6,177.1,479.9,176.7,479.9z" class="st9"></path>
		<path d="M169.3,489.4h-19.1c-0.4,0-0.7-0.3-0.7-0.7l0,0c0-0.4,0.3-0.7,0.7-0.7h19.1c0.4,0,0.7,0.3,0.7,0.7l0,0
			C170.1,489.1,169.7,489.4,169.3,489.4z" class="st9"></path>
		<path d="M253.1,458.7H150.2c-0.4,0-0.7-0.3-0.7-0.7l0,0c0-0.4,0.3-0.7,0.7-0.7h102.9c0.4,0,0.7,0.3,0.7,0.7l0,0
			C253.8,458.4,253.5,458.7,253.1,458.7z" class="st9"></path>
		<path d="M271.2,403.1H255c-0.4,0-0.7-0.3-0.7-0.7l0,0c0-0.4,0.3-0.7,0.7-0.7h16.2c0.4,0,0.7,0.3,0.7,0.7l0,0
			C271.9,402.8,271.6,403.1,271.2,403.1z" class="st9"></path>
		<path d="M227.4,486.5H223c-2.6,0-4.7-2.1-4.7-4.7l0,0c0-2.6,2.1-4.7,4.7-4.7h4.4c2.6,0,4.7,2.1,4.7,4.7l0,0
			C232.1,484.3,230,486.5,227.4,486.5z" class="st9"></path>
		<path d="M248.9,486.2h-4.4c-2.6,0-4.7-2.1-4.7-4.7l0,0c0-2.6,2.1-4.7,4.7-4.7h4.4c2.6,0,4.7,2.1,4.7,4.7l0,0
			C253.6,484.1,251.5,486.2,248.9,486.2z" class="st9"></path>
	</g>
</g>
<g id="两锅">
	<path d="M365.7,537.7L365.7,537.7c-28.1,0-51-12.8-51-40.9v-19.4h102.1v19.4C416.7,524.9,393.7,537.7,365.7,537.7z" class="st12"></path>
	<path d="M417.7,477.4H313.4c-0.9,0-1.6-0.7-1.6-1.6l0,0c0-0.9,0.7-1.6,1.6-1.6h104.3c0.9,0,1.6,0.7,1.6,1.6l0,0
		C419.3,476.7,418.5,477.4,417.7,477.4z" class="st13"></path>
	<path d="M482.1,537.7L482.1,537.7c-28.1,0-51-12.8-51-40.9v-19.4h102.1v19.4C533.2,524.9,510.2,537.7,482.1,537.7z" class="st12"></path>
	<path d="M534.1,477.4H429.9c-0.9,0-1.6-0.7-1.6-1.6l0,0c0-0.9,0.7-1.6,1.6-1.6h104.3c0.9,0,1.6,0.7,1.6,1.6l0,0
		C535.7,476.7,535,477.4,534.1,477.4z" class="st13"></path>
</g>
<g id="煤气_x2B_锅">
	<path d="M846.6,480.7L846.6,480.7c-28.1,0-51-12.8-51-40.9v-19.4h102v19.4C897.6,467.9,874.6,480.7,846.6,480.7z" class="st12"></path>
	<path d="M898.6,420.4H794.3c-0.9,0-1.6-0.7-1.6-1.6l0,0c0-0.9,0.7-1.6,1.6-1.6h104.3c0.9,0,1.6,0.7,1.6,1.6l0,0
		C900.2,419.7,899.5,420.4,898.6,420.4z" class="st13"></path>
	<polygon points="806.3,509.3 784.6,507.6 797.5,482.2 810.4,456.8 819.1,483.9 827.9,511" class="st14"></polygon>
	<polygon points="881.8,509.6 860.1,508.5 872.3,482.8 884.5,457 894,483.9 903.5,510.8" class="st14"></polygon>
	
		<rect height="32.6" width="15.1" class="st12" transform="matrix(0.5967 -0.8025 0.8025 0.5967 -125.9225 735.7381)" y="476.8" x="661.4"></rect>
	
		<rect height="15.1" width="32.6" class="st12" transform="matrix(0.8025 -0.5967 0.5967 0.8025 -152.4658 527.3627)" y="486.4" x="704"></rect>
	<path d="M885.6,537.5H583.8c0,0,7.7-51.3,48.9-51.3c57.6,0,252.8,0.2,252.8,0.2V537.5z" class="st15"></path>
	<polygon points="668.5,486.2 921.9,486.2 921.3,538.3 668.5,538" class="st12"></polygon>
	<path d="M925.3,519.7" class="st16"></path>
</g>
<g id="花瓶">
	<g>
		<g>
			<g>
				<g>
					<path d="M1080.9,728.9c0.3,0.1,4.9-25.8,8.3-35.8c3.6-10,11.3-16.1,13.8-27.9c2.5-11.8,3.6-26.3,8.8-31.9
						c5.3-5.5,8.6,0.5,13.8,1.1c5.2,0.5,15.4-3.3,19-0.7c0,0-5.2,0.7-9.1,3.4c-3.9,2.7-7.8,9.4-12.3,5.4c-4.5-4-9.6-9.3-11.3-6.8
						c-1.7,2.5-4.5,10.7-5.3,16.6c-0.8,5.9-3.2,17.8-6.3,23.2c-3.2,5.3-9.9,16.4-11,20.7c-2,7.3-7.3,31.9-12.2,49.5
						C1077.3,745.7,1080.1,733.5,1080.9,728.9z" class="st17"></path>
					<path d="M1140.2,633.7c0,0-5.3,1.3-6.7,2.7c-1.4,1.4-4,3.1-6.6,2.1c-2.4-1.1-10.1-8.5-13.9-4.8c0,0,2.7-1.1,5,0.4
						c2.4,1.5,7,5.7,9.8,5.8C1130.5,640.1,1137.3,633.6,1140.2,633.7z" class="st18"></path>
					<path d="M1074,733.3c1.8,0.1,11.3-98.7,16.1-116.4c6.6-17.8,19.2-12.9,24.1-18.5c4.9-5.9,18.1-10.8,27.4-4.9
						c0-0.1-7.5-1.1-10.8,2c-3.3,3.1-5.1,10.1-12.7,14.8c-7.3,4.4-23.7-4.6-26.6,12.7c-2.9,16.9-3.9,16.6-5.3,30.8
						c-0.8,14.2-11.5,80.8-13.3,87.2C1073.3,738.3,1073.7,735.8,1074,733.3z" class="st19"></path>
					<path d="M1137.4,592.6c0,0-7.2-0.2-9.1,1.9c-2,2.1-6.1,9.3-9.1,11.1c-2.9,1.3-22.3-1.3-26.2,8.6
						c0,0,1.7-3,6.5-4.3c4.8-1.3,11.3-1,16.2-1.7c4.9-0.7,9.4-6.7,13.4-12.6C1130.4,594,1135.3,592.6,1137.4,592.6z" class="st18"></path>
					<path d="M1099.3,606.1c0,0,2.4-1.8,4.7-2.2c2.3-0.4,7.3-0.2,9.5-2.5c2.2-2.3,3.5-5.7,6.8-6.6c0,0-2.3,1-2.8,2.7
						c-0.5,1.7-2.1,3.8-4.1,4.9C1111.3,603.3,1101.2,605.2,1099.3,606.1z" class="st20"></path>
					<path d="M1115.9,602.3c0,0,1.8-2.8,3.5-4.8c1.7-2,9.9-7.9,17.5-5.7c0,0-5.9-0.1-8.3,1.4c-2.4,1.5-5.1,3.1-6.8,4
						C1120.2,598.1,1118.4,602.2,1115.9,602.3z" class="st20"></path>
					<path d="M1067.4,735.6c-0.1,0,1.5-10.4,0.4-16.5c-1.1-6.1-2.2-17.1-1.2-32.8c1.1-15.7,0.8-33-6.4-36.3
						c-7.1-3.1-2.6,4.3-7.4,4.9c-4.8,0.7-7.3-2.5-11.1,0.9c-0.1,0,5.6-7.5,8.5-7.8c2.8-0.3,3.4-3.3,5.3-1.8c1.9,1.4,4.2,1.5,4.2,1.5
						c0-0.1,7.2,4.4,8.2,16.2c1,11.7-0.5,18.5-0.4,29.9c0,11.4,0.8,19.6,1.2,23.9C1069,722,1069.6,726.4,1067.4,735.6z" class="st21"></path>
					<path d="M1055.7,648.3c0,0-0.8-0.2-1.4,0.5c-0.6,0.7-1.8,2.3-3.2,2.4c-1.3,0.1-5.4,0.7-7.6,2.8
						c0,0,2.4-2.2,3.8-2.6c1.5-0.4,2.2,0,4.3-1.4C1053.8,648.6,1053.6,647.9,1055.7,648.3z" class="st18"></path>
					<path d="M1043.6,653.5c0,0,2.3-2.6,3.7-3.4c1.4-0.9,1.5-1,2.9-1.2c1.4-0.2,2.6-1,3.5-1.9c0.9-0.8,2.1-0.1,2.7,0.3
						c0,0,0.1,0,0.1,0.1c0.6,0.4-1.5-0.6-2-0.1c-0.5,0.4-2.4,2.3-3.3,2.3c-0.9,0-2.1-0.2-2.8,0.3
						C1047.5,650.3,1044.2,653.2,1043.6,653.5z" class="st20"></path>
					<path d="M1045.8,653.5c0,0,1.1-0.2,2.5,0.2c1.5,0.5,3.6,0.8,4.9-0.1s1.2-3.1,2.4-4.1c0,0-1.3,0.8-1.9,1.9
						s-1.7,1.9-3,1.8C1049.4,653.2,1046.7,652.4,1045.8,653.5z" class="st20"></path>
					<path d="M1071.9,746.6c-0.2,0,9.1-37.3,15.2-50.9c2.7-6.4,5.1-25.1,4.2-45.2c-0.4-20.2-4.2-41.8-4.2-54.4
						c0.1-25.1,16.4-19.7,24.9-23.9c0,0-4.6,4.6-11.2,7.3c-6.6,2.8-11.4,7.3-9.4,18c1.6,10.8,0.5,26.3,1.2,54
						c0.7,13.9,0.5,36.4-6.6,51.1C1081,714,1075.3,737.6,1071.9,746.6z" class="st22"></path>
					<path d="M1060.6,624.9c0.2-0.4,17,9.5,17.4,29.4c0.6,19.5-8.6,76.2-9.3,86.9c0.2,0,2.6-32.6,4.1-44.4
						c1.7-11.8,5.4-42.9,2.8-47.6c-2.6-4.8-9.8-1.5-11.1-9.2c-1.3-7.7-1.5-12.4-7.2-14C1048.5,623.8,1057.6,624.2,1060.6,624.9z" class="st23"></path>
					<path d="M1060,626.4c0,0,1.3,0.8,2.6,3c1.3,2.2,1.4,10.3,3.3,12.2c1.9,1.9,7.9,2.8,9.1,5c0,0-0.3-2.3-2.5-3
						c-2.2-0.8-4.6-1.3-5.5-2.9s-0.6-1.8-0.3-3.3c0.2-1.5-1-1-2-3.6c-1-2.5-3.1-8-4.5-7.6" class="st18"></path>
					<path d="M1107.4,575c0,0-5.3,2.3-8.5,4c-3.3,1.7-9.7,5.5-8.6,13.7c1.2,8.1,1.6,28,1.3,33.8
						c0.1,0-0.8-16.3-1.5-21.3c-0.4-5-3.3-18.6,0.9-22C1095.4,579.9,1102.9,575.7,1107.4,575z" class="st18"></path>
					<path d="M1055.1,624.8c0,0,3.9-0.1,5.8,0.8c1.9,0.8,8.3,5.3,13.1,14.8c0,0-1.6-2.8-2.6-3.1s-2.1,0.3-3.1-2.3
						c-1-2.6-3.6-6.4-4.6-6.9C1062.7,627.5,1061.7,625.4,1055.1,624.8z" class="st20"></path>
					<path d="M1110.2,573.4c0,0-5,1.1-7,1.8c-2.1,0.6-10.9,4.7-11.9,6.7c0,0,0.9-2.5,3.2-3.7
						C1096.7,577.1,1103.2,573.7,1110.2,573.4z" class="st20"></path>
					<path d="M1071.9,745.5c-1.2-0.2,23.3-88.9,20.2-99c-3.9-10.1-11.4-0.6-19.9,7.6c-8.7,8.3-13,14.1-19,11.3
						c0-0.1,8.4-6.8,13.7-17.1c5.2-10.4,12.2-13.9,22.4-10.5c10.8,3.8,2.2,32-13.9,95.8C1074.2,737.5,1073,741.5,1071.9,745.5z" class="st24"></path>
					<path d="M1054.4,664.6c0,0,1.9,0,4.9-2.6c2.7-2.7,12.5-15.3,17.3-18.6c4.6-3.3,7.2-5.7,12.3-3.8c0,0-4.4-2-8-1.6
						c-3.5,0.4-6.7,3-13,11.5C1062.4,657.2,1058.3,663.7,1054.4,664.6z" class="st20"></path>
					<path d="M1054.6,665.3c0,0,3.3,1,5.7-1c2.3-2.1,6.4-5.7,8.4-7.9c1.8-2.4,12.6-13.9,18.9-15c0,0-5.3-0.3-9,3.4
						c-2.2,2-7.1,7-9,9.2C1067.4,656,1059.3,666.2,1054.6,665.3z" class="st18"></path>
				</g>
			</g>
			<g>
				<g>
					<path d="M1066.7,756.4c0.3,0,1.1-25.9,2.5-36.2c1.4-10.4,6.6-18.3,7.4-30.1c0.7-11.9-0.3-26,3.3-32.6
						c3.7-6.6,7.2-1.9,11.6-2.8c4.4-1,12.7-7.8,16.2-6.5c0,0-4.5,2.3-7.4,6c-3,3.7-5.6,11.2-9.8,8.8c-4.2-2.4-9.1-6.1-10.2-3.2
						c-1.1,2.8-2.3,11.4-2.3,17.2c0.1,5.8-0.5,17.7-2.3,23.7c-1.9,6-5.7,18.3-6,22.6c-0.7,7.5-2.1,32.3-4.3,50.2
						C1065.3,773.3,1066.5,761,1066.7,756.4z" class="st17"></path>
					<path d="M1103.7,649.5c0,0-4.4,2.9-5.5,4.6c-1.1,1.7-3.1,4.1-5.3,3.9c-2.2-0.2-9.5-5-12.2-0.6c0,0,2.1-1.8,4.2-1
						c2.2,0.8,6.5,3.3,8.8,2.7C1096.1,658.4,1101.2,650.3,1103.7,649.5z" class="st18"></path>
					<path d="M1063.4,762.2c1.8-0.3-4.9-97.1-4-115.2c2.7-18.5,14.1-16.8,17.5-23.5c3.3-6.9,14-14.9,23-12.1
						c0,0-6.7,1.1-9.1,4.9c-2.4,3.8-3.1,11-8.9,17.5c-5.6,6.2-20.6,1.5-20.4,18.6c0.2,16.9-0.7,16.8,0.3,30.7
						c1.5,13.8,2.3,80.1,1.6,86.6C1063.5,767.2,1063.5,764.7,1063.4,762.2z" class="st19"></path>
					<path d="M1096.2,611.8c0,0-6.3,1.8-7.7,4.3c-1.4,2.5-4,10.5-6.3,13c-2.4,2.1-19.1,4.4-20.8,14.7
						c0,0,0.9-3.3,4.8-5.7c3.8-2.4,9.3-3.8,13.4-5.7c4.1-1.9,7.1-8.8,9.8-15.5C1090.3,615.1,1094.4,612.4,1096.2,611.8z" class="st18"></path>
					<path d="M1065.5,634.6c0,0,1.7-2.3,3.6-3.2c1.9-0.9,6.2-2,7.7-4.8c1.5-2.8,2.2-6.3,4.8-8c0,0-1.8,1.5-2,3.3
						c-0.2,1.8-1.2,4.1-2.8,5.7C1075.2,629.1,1066.9,633.4,1065.5,634.6z" class="st20"></path>
					<path d="M1079,626.8c0,0,1.1-3.2,2.3-5.5c1.2-2.3,7.4-10.1,14.4-10.1c0,0-5.2,1.5-7,3.6c-1.8,2-4,4.3-5.3,5.6
						C1082.1,621.8,1081.1,626.1,1079,626.8z" class="st20"></path>
					<path d="M1060.7,765.4c-0.1,0-0.7-10.2-2.2-15.9c-1.5-5.7-4.2-16-6.2-31.2c-1.9-15.2-5.1-31.6-11.4-33.5
						c-6.2-1.8-1.2,4.5-4.9,5.8c-3.6,1.4-6.3-1.2-8.6,2.6c-0.1,0,2.9-7.9,5.2-8.6c2.2-0.7,2.1-3.6,3.9-2.6c1.8,1,3.6,0.7,3.6,0.7
						c0-0.1,6.6,2.9,9.3,14c2.8,11,2.8,17.8,4.8,28.7c2,10.9,3.7,18.7,4.6,22.8C1059.7,752.1,1060.5,756.3,1060.7,765.4z" class="st21"></path>
					<path d="M1037.1,683.9c0,0-0.7,0-1,0.7c-0.3,0.8-1,2.5-2,2.8c-1,0.3-4.2,1.5-5.5,3.8c0,0,1.4-2.5,2.5-3
						c1.1-0.6,1.7-0.3,3.1-2C1035.6,684.5,1035.3,683.9,1037.1,683.9z" class="st18"></path>
					<path d="M1028.5,690.7c0,0,1.3-2.7,2.2-3.8c1-1.1,1-1.2,2.1-1.5c1.1-0.4,1.9-1.4,2.4-2.3c0.5-0.9,1.7-0.4,2.2-0.1
						c0,0,0.1,0,0.1,0c0.6,0.3-1.3-0.3-1.6,0.2c-0.3,0.5-1.5,2.6-2.2,2.7c-0.7,0.1-1.7,0.2-2.2,0.7
						C1031,687.1,1028.9,690.3,1028.5,690.7z" class="st20"></path>
					<path d="M1030.2,690.4c0,0,0.8-0.4,2.1-0.2c1.3,0.2,3,0.2,3.8-0.9c0.9-1.1,0.3-3.1,1.1-4.3c0,0-0.8,1-1.1,2.1
						c-0.3,1.1-1,2-2,2.2C1033.1,689.5,1030.8,689.2,1030.2,690.4z" class="st20"></path>
					<path d="M1063.4,775.5c-0.2,0,1.5-37.8,4.5-52.3c1.2-6.8,1.1-25.2-2.5-44.3c-3.1-19.2-9.7-39-11.8-51.1
						c-4.1-24,10.9-22.5,17.6-28.7c0,0-3.3,5.5-8.5,9.7c-5.3,4.2-8.6,9.6-5.2,19.4c3,10,4.7,25.1,9.1,51.4
						c2.6,13.2,4.8,34.6,1.2,50.5C1065.6,742.2,1064.1,766.2,1063.4,775.5z" class="st22"></path>
					<path d="M1036.6,660.8c0.2-0.4,15.7,5.8,19,24.7c3.4,18.5,5.2,74.8,6.4,85.2c0.2,0-2.9-31.8-3.6-43.4
						c-0.6-11.6-2.6-42.2-5.4-46.2c-2.8-4-8,0.4-10.3-6.6c-2.4-7.1-3.5-11.5-8.4-12C1026.5,662,1034,660.7,1036.6,660.8z" class="st23"></path>
					<path d="M1036.4,662.3c0,0,1.2,0.5,2.7,2.3c1.4,1.9,3,9.5,4.9,11c1.9,1.4,6.8,1.2,8,3c0,0-0.6-2.1-2.4-2.4
						s-3.9-0.3-4.9-1.7c-1-1.3-0.8-1.6-0.8-3.1c-0.1-1.5-1-0.8-2.3-3c-1.2-2.2-4-7-5-6.4" class="st18"></path>
					<path d="M1067.7,602.9c0,0-4.2,3.5-6.7,5.9c-2.5,2.4-7.4,7.5-5.1,15.1c2.3,7.5,5.8,26.5,6.4,32.1
						c0.1,0-3.2-15.4-4.5-20c-1.1-4.7-5.8-17-2.7-21.2C1058.1,610.5,1063.9,604.7,1067.7,602.9z" class="st18"></path>
					<path d="M1032.1,661.7c0,0,3.2-0.8,4.9-0.3c1.7,0.4,7.8,3.5,13.2,11.6c0,0-1.7-2.3-2.6-2.4
						c-0.9-0.1-1.6,0.7-2.9-1.6c-1.2-2.3-4.1-5.4-4.9-5.7C1038.8,662.9,1037.6,661.1,1032.1,661.7z" class="st20"></path>
					<path d="M1069.8,600.8c0,0-4.1,2.3-5.8,3.5c-1.7,1.1-8.6,7.1-9.1,9.2c0,0,0.4-2.6,2.1-4.3
						C1058.8,607.5,1063.8,602.7,1069.8,600.8z" class="st20"></path>
					<path d="M1063.4,774.4c-1.2,0.1,5.9-90.5,2.2-99.4c-4.6-8.7-9.2,2-14.5,11.5c-5.4,9.6-7.4,15.7-12.6,13.9
						c0-0.1,5-7.6,7.5-18.5c2.3-10.9,7.4-15.6,16.1-14.6c9.4,1.1,5.9,30.1,2.1,95C1063.8,766.3,1063.6,770.3,1063.4,774.4z" class="st24"></path>
					<path d="M1039.3,699.5c0,0,1.5-0.3,3.3-3.3c1.5-3,6.9-16.8,10.3-20.9c3.1-4.1,4.8-6.9,9.2-6.2c0,0-3.8-1-6.7,0.2
						c-2.8,1.2-4.9,4.3-8.4,13.6C1043.9,691.2,1042.1,698.1,1039.3,699.5z" class="st20"></path>
					<path d="M1039.6,700.1c0,0,2.7,0.4,4.1-1.9c1.4-2.4,3.9-6.5,5.1-9c0.9-2.6,7.5-15.7,12.4-18.2
						c0,0-4.2,0.9-6.7,5.2c-1.4,2.4-4.5,8.1-5.5,10.6C1047.7,689.3,1043.3,700.3,1039.6,700.1z" class="st18"></path>
				</g>
			</g>
			<g>
				<g>
					<path d="M1058.7,695.2c0.3-0.1-4.8-24.7-4.4-35.1c0.5-10.5,7.4-19.7,5.7-31.2c-1.8-11.5-6.2-24.6-2.4-32
						c4-7.4,10.1-3.8,16.4-5.9c6.3-2.1,16.3-10.3,21.5-9.7c0,0-5.7,3.1-8.9,7.3c-3.3,4.2-5.1,11.9-12,10.6
						c-6.9-1.3-14.9-3.4-15.9-0.4c-1,3-1,11.5,0.4,17c1.4,5.5,3.5,17,1.9,23.2c-1.7,6.2-5.5,19.3-5.1,23.5
						c0.5,7.4,4.2,31.3,5.7,48.8C1061.6,711.4,1059.7,699.6,1058.7,695.2z" class="st17"></path>
					<path d="M1090.4,583.4c0,0-5.6,3.7-6.6,5.6c-1.1,1.9-3.3,4.6-6.7,5c-3.3,0.2-15.1-2.4-18.1,2.7c0,0,2.7-2.3,6-2.1
						c3.4,0.1,10.4,1.5,13.7,0.3C1081.9,593.6,1087,584.7,1090.4,583.4z" class="st18"></path>
					<path d="M1050.5,703c1.8-0.7-23.6-91-24.2-109.1c1.1-19,17.1-21.2,20.6-28.5c3.4-7.7,16.2-18.4,28.9-17.8
						c0-0.1-8.8,2.7-11.3,7c-2.5,4.3-1.8,11.3-8.7,19.2c-6.7,7.3-28.6,8.1-25.6,24.6c2.8,16.2,1.5,16.5,5.1,29.4
						c4.1,12.8,16.7,75.8,17.1,82.3C1051.7,707.8,1051.1,705.4,1050.5,703z" class="st19"></path>
					<path d="M1070.7,548.9c0,0-8.1,3.3-9.5,6.1c-1.4,2.8-3.3,11.1-6,14.1c-2.9,2.5-25.7,10.2-26.6,20.9
						c0,0,0.8-3.5,5.8-7.2c5-3.7,12.4-6.7,17.8-9.8c5.3-3,8.1-10.4,10.3-17.6C1063.4,553.5,1068.4,549.9,1070.7,548.9z" class="st18"></path>
					<path d="M1032.8,579.8c0,0,2-2.8,4.5-4.3c2.5-1.5,8.2-3.9,9.8-7c1.6-3.1,1.8-6.7,5.1-9.1c0,0-2.2,2-2.1,3.8
						c0.1,1.8-0.9,4.3-2.8,6.3C1045.5,571.2,1034.7,578,1032.8,579.8z" class="st20"></path>
					<path d="M1050.2,568c0,0,0.9-3.3,2.2-5.9c1.2-2.6,8.1-11.8,17.5-13.5c0,0-6.7,2.8-8.8,5.3
						c-2.1,2.4-4.6,5.2-6.1,6.8C1053.5,562.2,1053,566.6,1050.2,568z" class="st20"></path>
					<path d="M1041.5,709.6c-0.1,0-1.7-9.9-5.5-14.3c-3.8-4.4-8.9-13.2-13-27.5c-3.9-14.3-10.3-29.2-19.7-27.6
						c-9.2,1.8-1.6,5.4-7,9.1c-5.3,3.9-9,2.7-12.3,8.5c-0.1,0,3.9-10.7,7.2-12.8c3.1-2.1,2.8-5.1,5.4-5.1c2.6,0,5.2-1.4,5.2-1.4
						c0-0.1,9.8-0.6,15,9c5.2,9.5,5.7,16.4,9.7,26.3c4,9.8,7.9,16.4,10,19.8C1038.7,696.9,1041.3,700.1,1041.5,709.6z" class="st21"></path>
					<path d="M997.7,641.6c0,0-1,0.4-1.4,1.4s-1.4,3.2-2.8,4.3c-1.5,1-5.9,4.2-7.7,7.6c0,0,2-3.7,3.5-5
						c1.5-1.3,2.5-1.5,4.4-4.1C995.6,643,995.2,642.6,997.7,641.6z" class="st18"></path>
					<path d="M985.6,654.3c0,0,1.7-3.9,3.1-5.6c1.3-1.8,1.4-1.9,2.9-3c1.5-1.1,2.6-2.6,3.4-4c0.7-1.3,2.3-1.4,3.2-1.5
						c0,0,0.1,0,0.1,0c0.8-0.1-1.9,0.4-2.3,1.2c-0.5,0.7-2,3.7-3.1,4.3c-1,0.6-2.4,1.2-3.1,2.1C989.1,648.7,986.2,653.6,985.6,654.3
						z" class="st20"></path>
					<path d="M988.1,652.8c0,0,1.1-0.9,2.9-1.5c1.8-0.6,4.3-1.7,5.5-3.4c1.2-1.7,0.4-3.5,1.4-5.2c0,0-1.2,1.6-1.6,2.9
						c-0.4,1.4-1.3,2.8-2.8,3.6C992.1,650.1,988.8,651.2,988.1,652.8z" class="st20"></path>
					<path d="M1053.3,715.6c-0.2,0.1-2.8-37.2-0.7-52.1c0.8-6.9-4-24.3-12.5-41.1c-8.2-17.1-20.1-33.8-24.5-44.7
						c-8.7-21.9,11.3-25.8,19.2-33.8c0,0-3.5,6.3-9.7,12.1c-6.3,5.9-10.1,12.3-4.1,20.6c5.6,8.5,9.8,22.5,21.1,46
						c6,11.6,15,31,12,47.5C1052.2,682.5,1054.5,705.8,1053.3,715.6z" class="st22"></path>
					<path d="M995.6,617.9c0-0.5,22.3-1.8,30,15.2c7.7,16.4,17,70.7,20.1,80.3c0.2-0.1-8.9-29.5-11.1-40.6
						c-2.1-11.2-8.8-40.2-13.5-42.8c-4.7-2.6-12,4.5-15.9-1.3c-4-5.9-5.9-9.9-12.7-7.8C981.8,624.5,992,619.1,995.6,617.9z" class="st23"></path>
					<path d="M995.5,619.6c0,0,1.7-0.1,3.9,1c2.2,1.2,5,8.1,7.8,8.6c2.8,0.5,10.1-2.3,12.2-1.1c0,0-1.2-1.8-3.9-1.2
						c-2.8,0.6-5.8,1.6-7.4,0.8c-1.6-0.8-1.2-1.2-1.5-2.7c-0.2-1.5-1.5-0.3-3.5-1.9c-1.9-1.6-6.2-5.1-7.6-3.9" class="st18"></path>
					<path d="M1030.7,548.6c0,0-5.1,4.7-8,7.9c-3,3.1-8.8,10-4.7,16.4c4.2,6.4,11.8,23.4,13.6,28.6
						c0.1,0-6.9-13.7-9.3-17.6c-2.2-4.1-10.3-14.3-6.7-19.5C1019.2,559.1,1026,551.5,1030.7,548.6z" class="st18"></path>
					<path d="M989.5,621.1c0,0,4.3-2.5,6.7-2.9c2.4-0.4,11.1-0.3,19.9,5.1c0,0-2.8-1.5-4.1-1.1
						c-1.3,0.4-2.3,1.5-4.3-0.2c-2-1.6-6.2-3.4-7.5-3.3C998.9,618.9,997,617.6,989.5,621.1z" class="st20"></path>
					<path d="M1033.2,545.9c0,0-5.1,3.5-7.1,5.2c-2.1,1.6-10.3,9.8-10.8,12.1c0,0,0.2-2.7,2.2-5
						C1019.6,556,1025.6,549.7,1033.2,545.9z" class="st20"></path>
					<path d="M1052.8,714.7c-1.2,0.4-5.7-89.2-13.2-96.2c-8.4-6.6-13.5,5.6-20.8,17.8c-7.4,12.5-10.7,20.4-18.5,22
						c-0.1-0.1,7.6-11.7,10.4-23.9c2.6-12.3,9.3-19.3,22.4-22c13.9-2.5,14.9,26.3,19.7,89.9C1052.7,706.5,1052.7,710.6,1052.8,714.7
						z" class="st24"></path>
					<path d="M1001.4,656.8c0,0,2.3-1.3,4.9-5.6c2.3-4.3,9.5-21.3,14-26.8c4.2-5.5,6.4-9,13-10.1c0,0-5.8,0.6-9.9,3.1
						c-4,2.4-6.7,6.4-11.1,17.6C1008.3,644.9,1005.7,653.4,1001.4,656.8z" class="st20"></path>
					<path d="M1001.9,657.3c0,0,4.2-1.4,6.3-4.7c2.1-3.4,5.7-9.1,7.3-12.3c1.3-3.2,10-19.5,16.9-23.9
						c0,0-6.2,2.7-9.3,8c-1.8,3-5.9,10.2-7.3,13.3C1013.9,640.8,1007.6,654.8,1001.9,657.3z" class="st18"></path>
				</g>
			</g>
		</g>
	</g>
	<path d="M1073,893.2c-2,0-18.3,0.4-20.1-0.2c-13.9-4.7-8.3-25.5-8.3-36.5l-1.2-138.3c0-6.7,5.5-12.2,12.2-12.2h32.8
		c6.7,0,12.2,5.5,12.2,12.2l1.2,138.3C1101.7,869,1090.2,893.2,1073,893.2z" class="st6"></path>
	<path d="M1054.7,893.5c-17.1,0-28.4-25-28.4-37.5l-1.2-132.2c0-10,8.2-18.2,18.2-18.2h29.3c5.2,0,9.4,4.2,9.4,9.4
		l1.2,141.1C1083.1,868.5,1071.8,893.5,1054.7,893.5z" class="st5"></path>
	<path d="M1092.7,782.1" class="st6"></path>
</g>
</svg>
