<?xml version="1.0" standalone="no"?><!DOCTYPE svg PUBLIC "-//W3C//DTD SVG 1.1//EN" "http://www.w3.org/Graphics/SVG/1.1/DTD/svg11.dtd"><svg t="1691024975437" class="icon" viewBox="0 0 1024 1024" version="1.1" xmlns="http://www.w3.org/2000/svg" p-id="3741" xmlns:xlink="http://www.w3.org/1999/xlink" width="100" height="100"><path d="M305.29 449.44H727.2v184.59H305.29z" fill="#FDD668" p-id="3742"></path><path d="M275.21 664.08h482.07V419.36H275.21z m60.13-184.59h361.81V604H335.34z" p-id="3743"></path><path d="M896.18 445.76v-83.24L564.44 157.85l-77.37-49.72L591.8 38h-92.25l-106 71 75.22 48.39-332.46 205.13v83.24H14.37v271.08h121.94v88.49l379.92 119.88 379.95-119.88v-88.49h111.6V445.76z m-776.32 211H74.5V505.89h45.36z m716.19 104.47L516.23 862.14l-319.8-100.91V396.05l319.8-197.3L565.32 229 365.79 345.89H458l152.18-89.19 225.87 139.35z m111.6-104.52h-45.36V505.89h45.36z" p-id="3744"></path></svg>