<svg xmlns="http://www.w3.org/2000/svg" xmlns:xlink="http://www.w3.org/1999/xlink" width="48" height="48" viewBox="0 0 48 48" fill="none"><g opacity="1"  transform="translate(0 0)"><path id="矩形 3" fill-rule="evenodd" style="fill:#E6F8FF" opacity="1" d="M8 48L40 48C44.42 48 48 44.42 48 40L48 8C48 3.58 44.42 0 40 0L8 0C3.58 0 0 3.58 0 8L0 40C0 44.42 3.58 48 8 48Z"></path><g opacity="1"  transform="translate(10.800048828125 10.800048828125)"><path id="路径 1" fill-rule="evenodd" style="fill:#70D9FF" opacity="1" d="M2 12.7881L10 12.7881C11.1 12.7881 12 11.8881 12 10.7881L12 2.78809C12 1.68809 11.1 0.788086 10 0.788086L2 0.788086C0.9 0.788086 0 1.68809 0 2.78809L0 10.7881C0 11.8881 0.9 12.7881 2 12.7881Z"></path><path id="路径 2" fill-rule="evenodd" style="fill:#5CFFE1" opacity="1" d="M14.1088 8.48528L17.5029 11.8794C18.4363 12.8128 19.9636 12.8128 20.897 11.8794L24.2911 8.48528C25.2245 7.5519 25.2245 6.02455 24.2911 5.09117L20.897 1.69706C19.9636 0.763676 18.4363 0.763675 17.5029 1.69706L14.1088 5.09117C13.1754 6.02455 13.1754 7.5519 14.1088 8.48528Z"></path><path id="路径 3" fill-rule="evenodd" style="fill:#70D9FF" opacity="1" d="M2 26.0444L10 26.0444C11.1 26.0444 12 25.1444 12 24.0444L12 16.0444C12 14.9444 11.1 14.0444 10 14.0444L2 14.0444C0.9 14.0444 0 14.9444 0 16.0444L0 24.0444C0 25.1444 0.9 26.0444 2 26.0444Z"></path><path id="路径 4" fill-rule="evenodd" style="fill:#70D9FF" opacity="1" d="M15.2 26.0444L23.2 26.0444C24.3 26.0444 25.2 25.1444 25.2 24.0444L25.2 16.0444C25.2 14.9444 24.3 14.0444 23.2 14.0444L15.2 14.0444C14.1 14.0444 13.2 14.9444 13.2 16.0444L13.2 24.0444C13.2 25.1444 14.1 26.0444 15.2 26.0444Z"></path></g></g></svg>