<?xml version="1.0" standalone="no"?><!DOCTYPE svg PUBLIC "-//W3C//DTD SVG 1.1//EN" "http://www.w3.org/Graphics/SVG/1.1/DTD/svg11.dtd"><svg t="1692858218324" class="icon" viewBox="0 0 1024 1024" version="1.1" xmlns="http://www.w3.org/2000/svg" p-id="8557" xmlns:xlink="http://www.w3.org/1999/xlink" width="200" height="200"><path d="M438 338.2H148c-27.6 0-50-22.4-50-50v-140c0-27.6 22.4-50 50-50h290c27.6 0 50 22.4 50 50v140c0 27.6-22.4 50-50 50zM878 648.2H588c-27.6 0-50-22.4-50-50v-450c0-27.6 22.4-50 50-50h290c27.6 0 50 22.4 50 50v450c0 27.6-22.4 50-50 50zM438 928.2H148c-27.6 0-50-22.4-50-50v-450c0-27.6 22.4-50 50-50h290c27.6 0 50 22.4 50 50v450c0 27.6-22.4 50-50 50zM878 928.2H588c-27.6 0-50-22.4-50-50v-140c0-27.6 22.4-50 50-50h290c27.6 0 50 22.4 50 50v140c0 27.6-22.4 50-50 50z" fill="#1890FF" p-id="8558"></path></svg>