<svg xmlns="http://www.w3.org/2000/svg" xmlns:xlink="http://www.w3.org/1999/xlink" width="92.5621337890625" height="125.5390625" viewBox="0 0 92.5621337890625 125.5390625" fill="none">
<path d="M90.2744 81.2343C87.8183 46.1032 51.4783 22.3534 51.4783 22.3534C51.4783 22.3534 72.3129 48.6817 71.4942 63.5215C71.169 69.4359 61.4097 75.4614 54.2519 67.1597C49.7567 61.9453 59.0263 53.326 47.3006 34.5114C40.3073 23.2907 9.04389 0 9.04389 0C9.04389 0 25.368 23.5088 12.6821 57.8595C1.19209e-05 92.2102 15.3333 107.077 15.3333 107.077C15.3333 107.077 23.0191 117.314 34.4272 122.341C27.9924 118.749 23.6388 111.878 23.6388 103.986C23.6388 92.3823 33.0462 82.975 44.6494 82.975C56.2527 82.975 65.66 92.3823 65.66 103.986C65.66 115.589 56.5817 124.656 45.2653 124.981C61.3026 125.539 92.5621 113.932 90.2744 81.2381L90.2744 81.2343Z"   fill="#DEF7FF" >
</path>
</svg>
