<svg xmlns="http://www.w3.org/2000/svg" xmlns:xlink="http://www.w3.org/1999/xlink" width="31.9010009765625" height="25.599609375" viewBox="0 0 31.9010009765625 25.599609375" fill="none">
<path     fill="#70D9FF"  d="M12.5248 23.2072L23.0148 10.3275C23.2948 9.97749 23.3148 9.4875 23.0548 9.11751L18.1348 2.22764C17.9448 1.96765 17.6348 1.81765 17.3148 1.81765L6.17482 1.81765C5.85482 1.81765 5.55482 1.96765 5.36482 2.22764L0.444828 9.11751C0.184828 9.4875 0.204826 9.97749 0.484827 10.3275L10.9748 23.2072C11.3748 23.6972 12.1248 23.6972 12.5248 23.2072Z">
</path>
<g filter="url(#filter_1)">
<path     fill="#70D9FF" opacity="0.4" d="M19.1749 24.549L31.0649 9.95879C31.3449 9.60878 31.3649 9.11878 31.1049 8.74877L25.5149 0.918653C25.3249 0.648649 25.0249 0.498648 24.6949 0.498648L12.1048 0.498648C11.7848 0.498648 11.4848 0.658649 11.2948 0.918653L5.70484 8.74877C5.44484 9.10878 5.45484 9.60878 5.73484 9.95879L17.6248 24.549C18.0248 25.039 18.7748 25.039 19.1749 24.549Z">
</path>
<path    style="mix-blend-mode:overlay" fill="#FFFFFF" opacity="0.3" d="M19.1749 24.549L31.0649 9.95879C31.3449 9.60878 31.3649 9.11878 31.1049 8.74877L25.5149 0.918653C25.3249 0.648649 25.0249 0.498648 24.6949 0.498648L12.1048 0.498648C11.7848 0.498648 11.4848 0.658649 11.2948 0.918653L5.70484 8.74877C5.44484 9.10878 5.45484 9.60878 5.73484 9.95879L17.6248 24.549C18.0248 25.039 18.7748 25.039 19.1749 24.549Z">
</path>
<path    style="mix-blend-mode:soft-light" fill="#FFFFFF" opacity="0.1" d="M19.1749 24.549L31.0649 9.95879C31.3449 9.60878 31.3649 9.11878 31.1049 8.74877L25.5149 0.918653C25.3249 0.648649 25.0249 0.498648 24.6949 0.498648L12.1048 0.498648C11.7848 0.498648 11.4848 0.658649 11.2948 0.918653L5.70484 8.74877C5.44484 9.10878 5.45484 9.60878 5.73484 9.95879L17.6248 24.549C18.0248 25.039 18.7748 25.039 19.1749 24.549Z">
</path>
<path   fill="url(#linear_0)"  d="M5.29454 8.45421L10.8879 0.627489C11.1695 0.233473 11.624 -0.000383377 12.1083 -0.000383377L24.6967 -0.000383377C25.1811 -0.000383377 25.6357 0.233551 25.9172 0.627728L31.508 8.45443C31.901 9.00455 31.8774 9.74958 31.4504 10.2737L19.5654 24.8632C18.9652 25.6 17.8399 25.6 17.2396 24.8633L5.35209 10.2739C4.92492 9.74968 4.90135 9.00441 5.29454 8.45422L6.10814 9.03566C5.97707 9.21906 5.98493 9.4675 6.12732 9.64225L18.0148 24.2316C18.2149 24.4772 18.59 24.4772 18.7901 24.2316L30.6751 9.64213C30.8175 9.46741 30.8253 9.21908 30.6943 9.0357L25.1035 1.209C25.0097 1.07761 24.8581 0.999632 24.6967 0.999632L12.1083 0.999632C11.9468 0.999632 11.7953 1.0776 11.7015 1.20894L6.10814 9.03566L5.29454 8.45421Z">
</path>
</g>
<rect  x="13.41412353515625" y="8.9111328125" width="8" height="2" transform="rotate(45 13.41412353515625 8.9111328125)" rx="2"    fill="#FFFFFF" >
</rect>
<rect  x="24.7274169921875" y="8.9111328125" width="10" height="2" transform="rotate(135 24.7274169921875 8.9111328125)" rx="2"    fill="#FFFFFF" >
</rect>
<defs>
<linearGradient id="linear_0" x1="0.9062181423916155%" y1="48.85272980993102%" x2="99.09426270410536%" y2="48.85272980993102%" gradientUnits="objectBoundingBox">
<stop offset="0" stop-color="#70D9FF"  />
<stop offset="0.9997" stop-color="#FFFFFF" stop-opacity="0" />
</linearGradient>
<filter id="filter_1" x="4.9013671875" y="0" width="26.9996337890625" height="25.599609375" filterUnits="userSpaceOnUse" color-interpolation-filters="sRGB">
<feFlood flood-opacity="0" result="feFloodId_1"/>
<feGaussianBlur in="feFloodId_1" stdDeviation_bg="2" type="BackgroundImage" />
<feComposite in2="SourceAlpha" operator="in" result="background_Blur_1"/>
<feBlend mode="normal" in="SourceGraphic" in2="background_Blur_1" result="shape_1"/>
</filter>
</defs>
</svg>
