<svg xmlns="http://www.w3.org/2000/svg" xmlns:xlink="http://www.w3.org/1999/xlink" width="48" height="48" viewBox="0 0 48 48" fill="none"><g opacity="1"  transform="translate(0 0)"><path id="矩形 3" fill-rule="evenodd" style="fill:#E6F8FF" opacity="1" d="M8 48L40 48C44.42 48 48 44.42 48 40L48 8C48 3.58 44.42 0 40 0L8 0C3.58 0 0 3.58 0 8L0 40C0 44.42 3.58 48 8 48Z"></path><path id="并集" fill-rule="evenodd" style="fill:#70D9FF" opacity="1" d="M22.7849 15.5642L36.4922 15.5642L36.4922 13.2362L22.8149 13.2362C22.6869 13.233 22.5589 13.2329 22.431 13.2358Q22.2312 13.2404 22.0316 13.2546C21.8987 13.2642 21.7661 13.2769 21.6338 13.2929Q21.4352 13.3169 21.2382 13.3506Q21.0411 13.3842 20.846 13.4275C20.7158 13.4563 20.5864 13.4883 20.4579 13.5235Q20.2651 13.5762 20.075 13.6383C19.9483 13.6797 19.8226 13.7241 19.6981 13.7717C19.5736 13.8192 19.4504 13.8697 19.3283 13.9232C19.2062 13.9768 19.0855 14.0333 18.9663 14.0927C18.8469 14.1522 18.7291 14.2145 18.6129 14.2797Q18.4386 14.3775 18.2692 14.4837C18.1563 14.5544 18.0451 14.628 17.9358 14.7042C17.8263 14.7805 17.7189 14.8594 17.6135 14.9408Q17.4554 15.0629 17.3033 15.1927Q17.1514 15.3224 17.0056 15.4596Q16.86 15.5967 16.7214 15.7406C16.629 15.8366 16.539 15.9348 16.4512 16.0352Q16.3196 16.1861 16.1957 16.3427Q16.0718 16.4996 15.9556 16.6623Q15.8395 16.8249 15.7313 16.9932Q15.6231 17.1616 15.5235 17.3347Q15.4237 17.508 15.3326 17.6858C15.2718 17.8045 15.2139 17.9245 15.159 18.046C15.1041 18.1674 15.0522 18.2901 15.0033 18.4141C14.9544 18.5381 14.9085 18.6632 14.8657 18.7894C14.8229 18.9157 14.7832 19.0429 14.7466 19.171C14.71 19.2992 14.6766 19.4283 14.6463 19.558C14.616 19.6878 14.5889 19.8182 14.565 19.9494C14.5411 20.0805 14.5204 20.2121 14.5029 20.3442Q14.4992 20.3722 14.4957 20.4001L10.8002 20.4001C10.1402 20.4001 9.6002 20.9401 9.6002 21.6001L9.6002 26.4001C9.6002 27.0601 10.1402 27.6001 10.8002 27.6001L14.4957 27.6001C14.498 27.6188 14.5004 27.6373 14.5029 27.6559C14.5204 27.7883 14.5411 27.92 14.565 28.051C14.5889 28.1822 14.616 28.3126 14.6463 28.4423C14.6766 28.5721 14.71 28.7011 14.7466 28.8293C14.7832 28.9575 14.8229 29.0847 14.8657 29.2109Q14.9297 29.3998 15.0033 29.5863C15.0521 29.7099 15.104 29.8326 15.1591 29.9544C15.214 30.0758 15.2718 30.1957 15.3325 30.3143C15.3936 30.4335 15.4573 30.5507 15.5237 30.6659Q15.6236 30.8395 15.7315 31.0073C15.8041 31.1202 15.8788 31.2305 15.9557 31.3381Q16.0722 31.5012 16.1955 31.6573Q16.321 31.816 16.4516 31.9654Q16.5828 32.1157 16.7215 32.2597C16.813 32.3549 16.9078 32.4485 17.0058 32.5408Q17.1511 32.6776 17.3029 32.8073Q17.4545 32.9368 17.6138 33.0598Q17.7698 33.1804 17.9356 33.2959C18.0445 33.3719 18.1557 33.4454 18.2692 33.5166C18.3812 33.5869 18.4958 33.6549 18.6129 33.7206C18.7285 33.7854 18.8462 33.8477 18.9661 33.9075C19.0854 33.9669 19.206 34.0234 19.3281 34.077Q19.5116 34.1575 19.6989 34.2289C19.8228 34.2762 19.9481 34.3206 20.0748 34.362C20.2036 34.4039 20.3314 34.4422 20.4582 34.4769C20.5875 34.5122 20.7168 34.5442 20.846 34.5729C20.9752 34.6014 21.1057 34.627 21.2375 34.6497C21.3685 34.6721 21.5007 34.6913 21.6342 34.7074C21.7652 34.7233 21.8977 34.7361 22.0316 34.7457C22.1657 34.7553 22.299 34.7615 22.4317 34.7645C22.5609 34.7673 22.6887 34.7672 22.8149 34.7641L36.4922 34.7641L36.4922 32.4361L22.7849 32.4361L22.7697 32.4365C22.6757 32.439 22.5802 32.4391 22.483 32.437C22.3887 32.4349 22.2936 32.4305 22.1979 32.4237C22.1022 32.4168 22.0072 32.4076 21.9127 32.3962C21.8177 32.3847 21.7237 32.371 21.6309 32.355Q21.4883 32.3307 21.3494 32.2998C21.257 32.2794 21.1644 32.2565 21.0715 32.2312C20.9809 32.2064 20.8897 32.1791 20.798 32.1492C20.7075 32.1196 20.6173 32.0877 20.5275 32.0533C20.4387 32.0195 20.3508 31.9835 20.2638 31.9453C20.1764 31.9069 20.09 31.8665 20.0046 31.824C19.9185 31.7811 19.8342 31.7365 19.7517 31.6902C19.6682 31.6433 19.5862 31.5946 19.5057 31.5441C19.4243 31.4931 19.3449 31.4406 19.2673 31.3865C19.1881 31.3312 19.1111 31.2747 19.0363 31.2168C18.9605 31.1583 18.8867 31.0984 18.8149 31.0371C18.7422 30.9751 18.6711 30.9113 18.6014 30.8457C18.5315 30.7798 18.4637 30.7128 18.398 30.6445C18.332 30.5761 18.2675 30.5057 18.2045 30.4335C18.1425 30.3625 18.0818 30.2894 18.0223 30.2142C17.9633 30.1396 17.9059 30.0632 17.8501 29.985C17.7952 29.9081 17.7417 29.8292 17.6896 29.7483Q17.6127 29.6287 17.5408 29.5038C17.4935 29.4217 17.4481 29.3381 17.4045 29.253C17.361 29.1681 17.3196 29.0821 17.2802 28.9951C17.2409 28.9081 17.2037 28.8203 17.1688 28.7316C17.1337 28.6428 17.1009 28.5533 17.0704 28.4631C17.0397 28.3728 17.0113 28.2819 16.9852 28.1902C16.959 28.0985 16.9351 28.0062 16.9134 27.9133Q16.8809 27.7741 16.8552 27.6331C16.8532 27.6221 16.8512 27.6111 16.8493 27.6001L20.4002 27.6001C21.0602 27.6001 21.6002 27.0601 21.6002 26.4001L21.6002 25.2001L29.1239 25.2001C29.5405 25.9161 30.3166 26.4 31.2002 26.4C32.5202 26.4 33.6002 25.32 33.6002 24C33.6002 22.68 32.5202 21.6 31.2002 21.6C30.3165 21.6 29.5404 22.0841 29.1238 22.8001L21.6002 22.8001L21.6002 21.6001C21.6002 20.9401 21.0602 20.4001 20.4002 20.4001L16.8493 20.4001C16.8512 20.3891 16.8532 20.3781 16.8552 20.3671C16.8723 20.2732 16.8917 20.1799 16.9134 20.087Q16.9459 19.9477 16.9851 19.8102C17.0113 19.7185 17.0397 19.6274 17.0704 19.5371C17.101 19.4468 17.1338 19.3572 17.1688 19.2686Q17.2213 19.1355 17.2803 19.0051C17.3196 18.9182 17.3609 18.8323 17.4044 18.7475C17.4479 18.6626 17.4935 18.5788 17.541 18.4961C17.5886 18.4136 17.6381 18.3321 17.6897 18.2518C17.7414 18.1715 17.7949 18.0926 17.8502 18.015C17.9056 17.9374 17.9629 17.8612 18.0221 17.7864C18.0812 17.7116 18.1421 17.6383 18.2048 17.5664C18.2676 17.4945 18.3321 17.4242 18.3982 17.3556C18.4643 17.2869 18.5321 17.2199 18.6016 17.1545Q18.7059 17.0562 18.8144 16.9636C18.8871 16.9016 18.9611 16.8414 19.0366 16.7832C19.112 16.7249 19.1888 16.6685 19.2671 16.6139C19.3454 16.5594 19.4249 16.5068 19.5057 16.4561C19.5865 16.4055 19.6685 16.3568 19.7517 16.3101C19.8349 16.2635 19.9191 16.2189 20.0045 16.1764C20.0899 16.1338 20.1762 16.0934 20.2635 16.0551C20.3509 16.0168 20.4391 15.9806 20.5283 15.9466C20.6173 15.9126 20.7072 15.8808 20.7979 15.8512C20.8886 15.8216 20.9799 15.7942 21.0718 15.769C21.1638 15.7439 21.2564 15.721 21.3495 15.7004C21.4426 15.6798 21.5362 15.6614 21.6302 15.6453C21.7242 15.6293 21.8185 15.6155 21.9131 15.6041Q22.0552 15.5869 22.1979 15.5767C22.2931 15.5699 22.3883 15.5654 22.4838 15.5632C22.579 15.5611 22.6743 15.5613 22.7697 15.5638L22.7849 15.5642Z"></path><path id="路径 3" fill-rule="evenodd" style="fill:#5CFFE1" opacity="1" d="M27.5999 37.2L37.1999 37.2C37.8599 37.2 38.3999 36.66 38.3999 36L38.3999 31.2C38.3999 30.54 37.8599 30 37.1999 30L27.5999 30C26.9399 30 26.3999 30.54 26.3999 31.2L26.3999 36C26.3999 36.66 26.9399 37.2 27.5999 37.2Z"></path><path id="路径 4" fill-rule="evenodd" style="fill:#5CFFE1" opacity="1" d="M27.5999 18L37.1999 18C37.8599 18 38.3999 17.46 38.3999 16.8L38.3999 12C38.3999 11.34 37.8599 10.8 37.1999 10.8L27.5999 10.8C26.9399 10.8 26.3999 11.34 26.3999 12L26.3999 16.8C26.3999 17.46 26.9399 18 27.5999 18Z"></path></g></svg>