<svg xmlns="http://www.w3.org/2000/svg" xmlns:xlink="http://www.w3.org/1999/xlink" width="16" height="16" viewBox="0 0 16 16" fill="none">
<path d="M13 15C13 15.55 12.62 16 12.17 16L3.83 16C3.38 16 3 15.55 3 15L3 5C3 4.45 3.38 4 3.83 4L12.17 4C12.62 4 13 4.45 13 5L13 15ZM5.02 13.2C5.02 13.64 5.47 14 6.02 14C6.57 14 7.02 13.64 7.02 13.2L7.02 6.8C7.02 6.36 6.57 6 6.02 6C5.47 6 5.02 6.36 5.02 6.8L5.02 13.2ZM9.02 13.2C9.02 13.64 9.47 14 10.02 14C10.57 14 11.02 13.64 11.02 13.2L11.02 6.8C11.02 6.36 10.57 6 10.02 6C9.47 6 9.02 6.36 9.02 6.8L9.02 13.2Z" fill-rule="evenodd"  fill="#70D9FF" >
</path>
<path d="M13.0098 1L9.01977 1C9.01977 0.45 8.56977 0 8.01977 0C7.46977 0 7.01977 0.45 7.01977 1L3.00977 1C2.45977 1 2.00977 1.45 2.00977 2C2.00977 2.55 2.45977 3 3.00977 3L13.0098 3C13.5598 3 14.0098 2.55 14.0098 2C14.0098 1.45 13.5598 1 13.0098 1Z"   fill="#70D9FF" >
</path>
</svg>
